<?xml version="1.0" standalone="no"?>
<!DOCTYPE svg PUBLIC "-//W3C//DTD SVG 20010904//EN"
 "http://www.w3.org/TR/2001/REC-SVG-20010904/DTD/svg10.dtd">
<svg version="1.0" xmlns="http://www.w3.org/2000/svg"
 width="700.000000pt" height="700.000000pt" viewBox="0 0 700.000000 700.000000"
 preserveAspectRatio="xMidYMid meet">
<metadata>
Created by potrace 1.14, written by Peter Selinger 2001-2017
</metadata>
<g transform="translate(0.000000,700.000000) scale(0.100000,-0.100000)"
fill="#000000" stroke="none">
<path d="M3210 6986 c-6 -6 -10 -6 -10 -2 0 5 -8 2 -17 -5 -15 -12 -16 -12 -8
1 7 12 6 13 -6 4 -8 -7 -29 -11 -46 -9 -18 1 -31 0 -28 -4 2 -4 -11 -6 -28 -5
-18 1 -36 -1 -42 -5 -5 -5 -27 -8 -48 -8 -20 0 -40 -3 -44 -6 -11 -12 -35 -8
-27 4 3 6 -5 3 -20 -6 -14 -10 -26 -14 -26 -10 0 4 -6 2 -14 -4 -10 -9 -16 -9
-21 -1 -4 7 -11 8 -18 1 -7 -5 -16 -10 -22 -11 -5 -2 -16 -5 -23 -7 -7 -3 -23
-3 -37 -1 -13 3 -22 2 -20 -3 3 -4 1 -10 -5 -14 -5 -3 -10 -1 -10 6 0 10 -3
10 -11 2 -6 -6 -18 -9 -25 -6 -8 3 -25 -2 -38 -11 -14 -8 -40 -18 -58 -21 -27
-4 -124 -37 -373 -127 -16 -6 -36 -15 -42 -21 -7 -5 -13 -6 -13 -3 0 4 -12 0
-27 -8 -16 -8 -90 -45 -166 -82 -76 -37 -145 -73 -153 -81 -11 -11 -14 -12
-14 -1 -1 10 -4 9 -13 -2 -16 -20 -63 -52 -107 -75 -19 -9 -45 -27 -57 -38
-13 -11 -23 -17 -23 -12 0 4 -8 -1 -18 -11 -18 -21 -91 -69 -104 -69 -4 0 -15
-10 -23 -22 -9 -13 -21 -23 -27 -23 -6 0 -19 -10 -29 -22 -11 -11 -19 -18 -19
-15 0 5 -20 -12 -89 -76 -13 -12 -21 -15 -16 -7 4 8 -11 -4 -33 -27 -22 -24
-43 -43 -46 -43 -4 0 -56 -49 -116 -109 -60 -59 -113 -105 -116 -102 -4 3 -4
-2 -1 -11 4 -13 2 -15 -10 -11 -13 5 -15 2 -10 -11 4 -9 3 -15 -2 -12 -4 3
-17 -4 -27 -17 -19 -21 -19 -21 1 -8 11 7 0 -5 -25 -28 -25 -23 -44 -47 -42
-52 1 -6 -2 -8 -7 -5 -10 7 -24 -10 -28 -33 -1 -8 -10 -21 -19 -30 -17 -15
-17 -15 -3 4 13 19 13 19 -4 6 -10 -8 -16 -20 -13 -27 3 -7 -8 -24 -24 -37
-16 -14 -26 -28 -23 -31 4 -3 1 -6 -5 -6 -6 0 -14 -10 -17 -21 -4 -12 -22 -36
-41 -54 -18 -18 -31 -35 -28 -38 8 -8 -19 -47 -33 -47 -7 0 -13 -7 -13 -15 0
-8 -4 -15 -10 -15 -5 0 -10 -5 -10 -11 0 -5 6 -7 13 -4 6 4 4 0 -5 -8 -10 -8
-15 -17 -11 -20 3 -4 1 -7 -5 -7 -7 0 -12 -7 -12 -15 0 -8 -9 -19 -19 -25 -11
-5 -18 -18 -17 -27 2 -10 -5 -24 -15 -31 -11 -7 -19 -23 -19 -34 0 -12 -3 -18
-7 -14 -4 4 -12 -10 -18 -31 -7 -21 -17 -37 -23 -36 -6 2 -10 -5 -10 -15 1
-20 -50 -130 -69 -150 -7 -7 -13 -18 -13 -24 0 -5 -6 -24 -14 -41 -19 -45
-110 -280 -112 -292 -1 -5 -12 -44 -24 -85 -12 -41 -22 -76 -21 -78 1 -1 -5
-15 -12 -30 -8 -15 -13 -35 -12 -44 2 -10 -1 -18 -7 -18 -5 0 -8 -6 -5 -12 2
-7 -1 -29 -8 -48 -7 -19 -10 -41 -7 -49 3 -8 0 -11 -6 -7 -7 4 -10 -4 -8 -21
1 -16 -4 -48 -12 -73 -7 -25 -15 -56 -16 -70 -2 -14 -6 -34 -11 -45 -5 -16 -5
-17 4 -5 9 13 11 13 11 -2 0 -10 -4 -18 -8 -18 -9 0 -10 -2 -13 -72 -1 -32 -5
-45 -13 -41 -6 4 -5 0 2 -9 9 -11 10 -18 2 -23 -5 -3 -10 -11 -10 -16 0 -6 6
-7 13 -3 8 5 8 2 -2 -9 -7 -9 -10 -17 -5 -17 4 0 3 -5 -4 -12 -7 -7 -11 -23
-11 -37 1 -25 2 -24 9 4 l8 30 1 -32 c0 -18 -2 -33 -6 -33 -10 0 -9 -413 1
-428 4 -7 2 -12 -5 -12 -10 0 -10 -3 -1 -12 14 -14 16 -32 3 -24 -10 7 -4 -44
9 -79 5 -12 4 -29 -2 -39 -8 -14 -7 -17 1 -12 6 4 11 0 11 -9 0 -10 -5 -13
-12 -9 -7 5 -8 3 -2 -7 9 -14 12 -26 17 -69 2 -14 7 -32 12 -39 5 -10 4 -12
-3 -7 -7 4 -12 2 -12 -3 0 -6 4 -11 9 -11 5 0 8 -13 7 -30 -1 -16 2 -30 7 -30
5 0 7 -9 4 -20 -3 -11 -1 -23 5 -26 5 -3 7 -12 4 -20 -3 -7 -1 -16 4 -19 5 -3
7 -12 3 -20 -3 -9 -1 -21 5 -28 6 -7 14 -37 18 -67 4 -30 12 -58 18 -62 8 -6
7 -8 -1 -8 -9 0 -9 -7 2 -27 7 -16 30 -82 50 -148 21 -66 55 -165 77 -220 22
-55 41 -107 43 -116 2 -9 8 -25 13 -35 5 -11 15 -30 21 -44 6 -14 33 -68 60
-120 27 -52 49 -97 49 -100 -2 -19 3 -30 12 -25 8 5 15 -9 8 -17 -1 -2 7 -13
17 -26 11 -12 20 -26 20 -31 0 -4 8 -15 17 -25 16 -16 19 -24 17 -42 0 -3 10
-14 22 -25 12 -10 16 -19 10 -19 -7 0 3 -16 23 -36 21 -21 35 -43 32 -50 -5
-13 17 -38 26 -28 3 3 5 -3 5 -13 -1 -10 4 -17 11 -15 8 1 11 -2 8 -7 -4 -5 2
-16 12 -23 23 -17 41 -45 21 -33 -13 8 47 -63 80 -95 9 -8 23 -24 31 -35 l15
-20 -24 20 -24 20 14 -23 c8 -12 19 -22 25 -22 13 0 56 -45 49 -52 -3 -3 3
-11 12 -19 17 -13 17 -13 3 6 -14 19 -14 19 3 6 10 -8 16 -20 13 -27 -3 -8 -2
-13 3 -11 11 3 116 -111 116 -126 0 -7 5 -12 11 -12 15 0 69 -47 77 -68 4 -10
15 -20 24 -24 10 -3 34 -24 54 -45 20 -21 39 -38 43 -38 4 0 21 -15 38 -33 18
-17 38 -31 45 -29 7 2 13 -4 13 -12 0 -8 9 -17 20 -21 11 -3 35 -21 54 -40 19
-18 37 -31 40 -27 3 3 6 0 6 -6 0 -7 7 -12 16 -12 9 0 12 -5 8 -12 -4 -6 -3
-8 3 -5 11 7 60 -26 81 -55 7 -10 20 -18 29 -18 19 0 76 -31 86 -48 9 -14 56
-36 70 -34 4 1 7 -5 7 -13 0 -9 10 -15 26 -15 14 0 23 -4 19 -10 -3 -5 -3 -10
2 -11 29 -3 47 -9 54 -21 5 -7 9 -8 9 -3 0 6 5 2 11 -7 5 -9 15 -15 22 -12 7
2 33 -9 58 -25 26 -16 57 -32 70 -36 13 -4 35 -14 49 -23 14 -9 52 -26 85 -38
33 -12 125 -45 205 -74 80 -29 151 -53 158 -53 6 0 12 -5 12 -10 0 -5 7 -7 15
-4 8 4 17 2 20 -3 4 -6 16 -10 29 -10 12 0 26 -3 29 -7 4 -3 19 -8 34 -9 14
-2 29 -8 33 -15 4 -6 13 -9 19 -5 6 4 20 2 32 -5 12 -6 19 -7 15 -1 -4 6 2 8
15 5 16 -4 17 -8 7 -14 -7 -5 -8 -9 -3 -9 6 0 17 6 24 12 9 8 11 8 8 2 -4 -7
0 -15 9 -18 25 -10 41 -6 19 5 -17 8 -16 9 5 3 14 -3 40 -7 57 -10 18 -2 44
-9 57 -14 14 -5 35 -7 47 -5 12 2 30 0 39 -5 10 -6 47 -12 82 -14 62 -5 87 -9
131 -21 17 -5 19 -4 7 4 -13 9 -13 11 2 11 9 0 19 -6 21 -12 4 -10 6 -10 6 0
1 7 6 10 12 6 14 -8 454 -8 514 0 22 3 69 8 105 11 36 4 68 9 72 11 3 2 28 7
55 10 61 6 101 12 133 18 14 3 33 7 42 9 10 2 21 6 24 10 4 4 12 7 18 7 6 0 4
-5 -4 -10 -9 -6 -10 -10 -3 -10 6 0 14 4 17 9 4 5 28 14 54 20 139 33 341 98
485 156 34 14 71 30 82 34 11 5 43 19 70 32 28 13 56 24 63 25 8 2 32 14 54
29 22 15 46 24 54 21 7 -3 16 0 20 6 5 7 2 8 -6 3 -8 -5 -11 -4 -6 3 3 6 29
18 56 27 28 9 48 21 44 26 -5 9 9 13 34 10 6 -1 12 3 12 8 0 6 10 15 21 22 17
9 20 8 13 -3 -4 -7 6 -2 23 12 17 14 29 28 27 31 -3 5 41 31 56 33 14 3 80 49
80 57 0 5 7 9 15 9 9 0 18 6 21 14 3 8 18 16 33 19 15 3 33 17 40 31 8 14 29
32 47 41 18 9 38 23 43 33 6 9 11 13 11 9 0 -4 9 -3 20 3 11 6 18 15 15 21 -4
5 -1 8 7 7 7 -2 12 3 11 10 -2 6 1 12 6 12 6 0 23 11 38 25 15 14 40 36 56 50
15 14 33 25 39 25 6 0 9 2 6 5 -3 3 40 49 96 103 105 101 177 179 140 152 -11
-8 4 9 35 38 31 29 55 57 54 62 -2 5 13 26 32 47 19 21 35 42 35 46 0 5 5 5
10 2 6 -3 10 2 10 12 0 10 20 40 44 68 25 27 44 52 44 55 -2 19 5 32 30 55 15
14 27 29 27 33 2 18 44 97 52 95 4 -2 8 4 8 12 0 8 6 20 13 27 6 6 12 18 12
25 0 8 7 16 15 19 8 4 15 12 15 20 0 22 63 143 72 138 4 -3 5 3 1 12 -5 13 -3
15 7 9 9 -5 11 -4 6 4 -4 6 0 23 9 37 9 14 18 33 20 42 5 22 55 144 64 157 4
6 33 91 65 190 31 99 63 194 71 210 8 17 16 54 19 83 2 29 10 60 18 69 9 12 9
15 1 9 -9 -5 -11 -2 -7 8 3 9 10 16 15 16 5 0 9 8 9 18 0 14 -2 15 -10 2 -14
-22 -12 -7 5 34 8 20 12 36 8 36 -4 0 -2 5 4 11 6 6 9 17 6 24 -2 8 1 23 7 35
8 15 8 20 1 16 -6 -4 -11 -2 -11 3 0 6 4 11 9 11 6 0 9 8 9 18 -1 45 18 218
27 232 3 5 1 11 -5 15 -6 4 -7 13 -2 23 10 19 8 429 -1 438 -4 4 -2 16 4 27 8
14 8 18 0 13 -6 -4 -11 -2 -11 3 0 6 4 11 10 11 5 0 3 19 -4 44 -7 24 -12 60
-10 80 2 20 -1 34 -6 31 -4 -3 -6 4 -3 14 3 10 -1 29 -7 41 -7 12 -8 20 -3 17
5 -3 10 4 10 16 2 15 0 18 -6 8 -6 -9 -10 -2 -13 23 -2 21 0 36 7 36 7 0 7 3
0 8 -13 9 -35 93 -22 85 5 -3 6 4 2 18 -4 13 -12 26 -16 27 -5 2 -9 8 -9 13 0
6 5 7 11 3 6 -3 4 4 -4 17 -8 13 -18 42 -21 64 -7 45 -11 63 -18 85 -33 93
-67 213 -63 221 4 5 2 9 -4 9 -6 0 -14 15 -19 33 -15 52 -101 268 -128 320
-68 128 -94 184 -94 201 0 11 -3 17 -6 13 -7 -7 -46 60 -47 81 0 6 -6 12 -13
12 -7 0 -20 20 -29 45 -10 24 -21 42 -26 39 -5 -3 -6 1 -3 9 3 8 -3 21 -13 28
-10 8 -25 28 -33 44 -8 17 -27 43 -43 58 -15 15 -25 32 -22 37 4 6 -2 10 -12
10 -14 0 -15 2 -4 9 9 6 10 11 2 15 -6 4 -11 4 -11 1 0 -6 -24 21 -60 69 -13
18 -13 19 0 12 8 -4 3 2 -12 14 -16 12 -28 26 -28 32 0 6 -16 24 -35 41 -19
16 -32 33 -29 38 3 5 0 8 -7 7 -7 -2 -13 4 -14 12 -1 8 -6 14 -13 12 -7 -1
-12 3 -12 9 0 14 -245 259 -260 259 -6 0 -8 5 -5 10 3 6 1 10 -5 10 -6 0 -25
16 -43 35 -17 19 -36 35 -41 35 -11 0 -107 79 -124 102 -7 10 -19 18 -27 18
-8 0 -19 8 -24 18 -5 10 -28 27 -50 37 -23 10 -41 22 -41 27 0 4 -7 8 -15 8
-8 0 -15 5 -15 11 0 5 -4 8 -9 5 -5 -3 -11 1 -15 9 -3 8 -12 15 -21 15 -8 0
-15 4 -15 8 0 8 -12 15 -77 45 -13 6 -23 15 -23 22 0 6 -9 11 -20 12 -11 1
-35 13 -53 27 -19 14 -37 23 -40 19 -4 -3 -7 -1 -7 6 0 7 -4 10 -9 7 -5 -4
-11 -3 -13 1 -1 5 -28 19 -58 33 -30 13 -77 37 -103 52 -26 16 -56 28 -66 28
-11 0 -21 6 -24 14 -3 8 -14 15 -24 14 -10 0 -71 20 -136 46 -64 25 -138 51
-162 57 -25 6 -45 16 -45 22 0 6 -3 7 -6 4 -4 -3 -16 -1 -28 5 -11 7 -38 13
-60 16 -21 2 -45 10 -53 18 -17 17 -27 18 -17 2 5 -7 3 -8 -7 -2 -16 10 -29
13 -84 21 -22 3 -43 10 -47 16 -4 6 -10 8 -14 4 -4 -4 -14 -1 -22 6 -13 10
-14 9 -7 -2 6 -10 4 -12 -5 -6 -14 9 -53 16 -83 16 -11 0 -15 5 -10 12 5 9 2
8 -9 0 -8 -7 -18 -10 -21 -7 -5 6 -32 10 -112 19 -16 2 -30 4 -30 5 0 1 -20 3
-45 4 -25 1 -50 5 -55 8 -23 14 -75 19 -94 9 -11 -6 -22 -8 -25 -3 -6 10 -391
9 -431 -1 -22 -5 -25 -5 -10 2 18 9 17 10 -8 8 -15 -1 -32 -6 -37 -11z m553
-3 c-7 -2 -19 -2 -25 0 -7 3 -2 5 12 5 14 0 19 -2 13 -5z m-1607 -1445 c-4 6
-2 12 3 12 6 0 11 -6 11 -12 0 -9 4 -8 10 2 6 10 10 11 10 3 0 -7 5 -13 11
-13 5 0 8 4 5 8 -3 5 1 9 9 9 8 0 15 -4 15 -9 0 -4 5 -8 11 -8 5 0 7 6 3 13
-6 9 -4 9 8 -1 11 -9 18 -10 23 -2 4 7 13 7 27 -1 15 -8 19 -8 14 0 -4 6 -3
11 3 11 5 0 12 -6 15 -12 5 -10 7 -10 12 0 5 10 9 10 22 0 12 -10 14 -10 8 0
-9 15 -1 15 26 1 15 -8 19 -8 14 0 -5 8 13 11 56 11 58 0 64 -2 79 -28 9 -15
39 -64 67 -109 27 -45 48 -84 46 -86 -2 -2 5 -12 16 -22 11 -10 20 -22 20 -26
0 -4 22 -45 50 -91 27 -46 50 -86 50 -91 0 -4 16 -30 35 -57 19 -27 35 -54 35
-59 0 -5 6 -14 14 -20 8 -7 18 -26 21 -42 4 -16 11 -27 16 -23 5 3 9 -4 9 -15
0 -12 5 -21 11 -21 5 0 8 -4 5 -9 -4 -5 -3 -11 1 -13 11 -5 53 -66 53 -77 0
-5 7 -17 16 -25 8 -9 17 -26 19 -38 3 -12 11 -26 20 -30 8 -5 15 -15 15 -23 0
-7 6 -20 14 -27 7 -8 17 -24 20 -36 4 -12 12 -22 17 -22 5 0 9 -6 9 -13 0 -7
11 -28 25 -47 14 -19 23 -40 21 -47 -3 -7 0 -16 7 -20 17 -11 52 -65 94 -145
8 -15 18 -30 24 -33 5 -4 9 -15 9 -26 0 -10 5 -19 11 -19 5 0 17 -15 25 -32
19 -42 33 -65 63 -108 14 -18 20 -30 13 -26 -8 5 -10 2 -6 -8 3 -9 10 -14 14
-11 5 3 12 -4 15 -16 4 -12 17 -36 30 -55 l23 -33 18 21 c13 14 14 19 4 13 -8
-4 -5 2 8 14 12 12 22 26 22 32 0 11 41 72 53 77 4 2 5 8 1 13 -3 5 0 9 6 9 6
0 9 4 6 9 -3 4 3 19 14 31 11 13 20 29 20 35 0 7 7 18 15 25 8 7 13 16 10 20
-2 4 4 15 15 25 11 10 18 21 15 25 -2 4 4 16 14 27 10 11 22 29 25 40 4 12 13
24 21 27 8 3 12 12 9 19 -3 8 1 21 8 28 19 20 49 68 46 73 -2 2 8 17 22 32 14
15 19 24 13 20 -9 -5 -11 -2 -7 8 3 9 9 16 13 16 5 0 16 17 27 38 10 20 31 56
47 79 15 23 27 48 27 56 0 8 9 22 19 31 11 10 22 28 25 42 4 13 11 24 16 24 6
0 10 5 10 11 0 14 71 133 82 137 4 2 6 7 3 11 -2 5 7 23 20 41 14 19 25 39 25
46 0 6 7 14 15 18 8 3 15 14 15 24 0 11 7 25 15 32 9 7 13 15 10 18 -3 3 1 12
9 21 14 16 56 90 86 149 9 18 19 29 23 26 4 -4 7 0 7 10 0 9 6 27 14 39 8 12
27 42 42 67 16 25 28 50 29 55 0 16 57 18 66 3 7 -10 9 -10 9 0 0 8 15 12 43
12 30 0 38 -3 27 -10 -12 -7 -10 -9 7 -7 12 0 19 5 17 9 -3 4 2 8 11 8 9 0 13
-5 9 -11 -5 -8 -1 -8 14 0 25 14 35 14 27 2 -3 -6 4 -8 17 -5 13 3 56 7 96 8
72 1 74 1 98 -31 14 -18 21 -33 17 -33 -4 0 -3 -4 2 -8 13 -9 43 -60 56 -94 6
-16 16 -28 22 -28 6 0 7 -3 4 -7 -4 -3 -1 -13 7 -22 8 -9 16 -23 18 -31 3 -13
9 -23 33 -53 6 -7 11 -19 13 -27 2 -8 7 -17 10 -20 4 -3 15 -21 25 -40 39 -73
52 -95 62 -102 6 -4 6 -8 2 -8 -4 0 3 -17 17 -37 14 -20 23 -40 20 -45 -3 -4
0 -8 6 -8 6 0 15 -10 20 -22 5 -13 18 -34 27 -48 14 -18 14 -22 3 -15 -8 5 0
-10 18 -33 19 -23 31 -42 28 -42 -3 0 1 -8 9 -17 8 -10 14 -20 13 -23 -1 -3
13 -27 32 -55 19 -27 32 -50 30 -51 -3 0 9 -22 25 -48 17 -26 28 -50 27 -53
-2 -3 2 -9 10 -14 7 -5 13 -12 14 -16 1 -14 23 -58 23 -49 1 4 15 -18 32 -50
36 -67 69 -127 118 -211 18 -32 40 -71 49 -88 8 -16 22 -38 30 -47 8 -10 12
-18 7 -18 -4 0 -2 -7 5 -15 14 -17 45 -70 90 -157 16 -31 34 -59 40 -63 6 -3
8 -11 5 -16 -4 -5 -2 -9 3 -9 6 0 18 -20 28 -44 10 -24 23 -42 28 -39 5 4 6 1
3 -4 -4 -6 1 -21 11 -34 28 -39 42 -63 48 -81 4 -10 11 -18 17 -18 6 0 7 -3 4
-7 -4 -3 0 -17 9 -31 28 -43 24 -98 -12 -142 -12 -15 -41 -66 -87 -153 -14
-25 -28 -43 -31 -40 -3 4 -6 -3 -6 -15 0 -11 -4 -24 -10 -27 -5 -3 -17 -23
-27 -43 -9 -20 -29 -55 -44 -77 -15 -22 -25 -43 -23 -47 3 -5 1 -8 -5 -8 -6 0
-19 -19 -30 -42 -25 -53 -41 -78 -61 -96 -8 -7 -9 -11 -2 -7 7 4 -3 -18 -22
-48 -19 -30 -33 -56 -31 -59 2 -2 -7 -17 -20 -32 -14 -16 -25 -37 -25 -46 0
-10 -7 -21 -16 -24 -8 -3 -12 -10 -9 -16 3 -5 2 -10 -3 -10 -5 0 -17 -18 -27
-40 -10 -22 -24 -45 -31 -51 -8 -6 -11 -15 -8 -20 3 -5 0 -9 -5 -9 -6 0 -10
-3 -9 -7 1 -5 -11 -28 -27 -53 -43 -67 -66 -110 -58 -110 5 0 -3 -10 -17 -21
-14 -11 -19 -17 -11 -13 7 4 -5 -21 -28 -54 -22 -34 -41 -68 -41 -76 0 -9 -4
-16 -9 -16 -5 0 -13 -10 -17 -22 -4 -13 -11 -26 -16 -29 -5 -3 -11 -15 -12
-25 -2 -10 -9 -18 -15 -17 -10 3 -16 -19 -8 -31 1 -3 -7 -15 -19 -28 -11 -13
-28 -40 -38 -60 -9 -20 -21 -40 -26 -43 -6 -4 -8 -11 -5 -16 4 -5 2 -9 -3 -9
-5 0 -17 -12 -27 -26 -10 -15 -12 -23 -4 -19 7 5 1 -7 -13 -26 -13 -19 -33
-52 -43 -74 -10 -22 -24 -44 -32 -48 -7 -5 -11 -12 -8 -18 4 -5 2 -9 -4 -9 -5
0 -13 -10 -17 -22 -4 -13 -18 -41 -33 -63 -14 -22 -26 -42 -27 -45 -8 -36 -16
-38 -100 -36 -47 1 -87 -1 -90 -6 -3 -5 -11 -5 -17 -1 -18 11 -147 9 -147 -2
0 -5 -5 -3 -11 5 -8 11 -12 12 -16 3 -2 -7 -9 -13 -14 -13 -6 0 -8 4 -5 8 3 5
-1 9 -9 9 -8 0 -12 -5 -8 -10 3 -5 -4 -4 -16 2 -11 6 -24 23 -27 36 -3 14 -10
25 -14 25 -5 0 -11 13 -15 30 -4 16 -12 33 -18 37 -13 9 -31 35 -49 73 -7 14
-24 41 -38 59 -14 19 -19 31 -12 27 8 -5 -2 15 -22 43 -20 28 -36 54 -36 58 0
3 -6 14 -14 22 -8 9 -16 23 -18 31 -2 8 -10 21 -18 28 -13 12 -13 13 0 7 9 -4
8 -1 -3 8 -10 9 -18 18 -18 21 3 20 0 28 -6 23 -4 -4 -13 5 -20 20 -20 41 -40
75 -60 101 -9 13 -18 31 -19 39 -2 9 -6 19 -11 22 -4 3 -14 16 -20 28 -7 13
-19 33 -25 45 -7 13 -16 25 -19 28 -7 6 -32 51 -55 100 -9 19 -19 37 -23 40
-4 3 -11 12 -14 20 -4 8 -18 33 -32 55 -27 43 -45 81 -45 96 0 5 -6 8 -12 7
-8 -2 -12 5 -10 16 2 12 -1 16 -9 10 -9 -5 -10 -2 -6 9 3 10 2 17 -4 17 -5 0
-14 10 -19 23 -11 25 -27 50 -52 86 -10 13 -15 27 -12 32 3 5 0 9 -6 9 -6 0
-9 4 -6 9 3 5 -1 11 -9 15 -8 3 -15 10 -15 15 0 5 -16 33 -35 62 -19 30 -35
57 -35 62 0 5 -12 24 -26 42 -15 20 -23 39 -18 46 4 7 3 9 -4 5 -6 -3 -13 3
-17 14 -3 11 -11 20 -16 20 -6 0 -8 -4 -5 -9 3 -5 -1 -12 -10 -15 -8 -3 -13
-10 -10 -15 4 -5 2 -11 -2 -13 -5 -1 -23 -29 -41 -60 -18 -32 -37 -58 -42 -58
-6 0 -7 -5 -4 -10 3 -6 -8 -31 -26 -57 -17 -26 -32 -53 -33 -60 -1 -7 -9 -20
-18 -30 -9 -10 -17 -21 -17 -26 -1 -7 -11 -26 -56 -97 -12 -19 -25 -45 -29
-58 -4 -12 -12 -19 -18 -16 -6 4 -8 2 -4 -4 3 -5 -16 -47 -44 -91 -27 -44 -50
-83 -50 -87 0 -3 -9 -18 -19 -33 -11 -15 -34 -54 -52 -86 -18 -33 -35 -62 -38
-65 -4 -3 -19 -30 -35 -60 -15 -30 -46 -84 -67 -120 -22 -36 -42 -73 -45 -82
-4 -10 -10 -15 -15 -12 -5 3 -6 -1 -4 -8 3 -8 -4 -24 -15 -36 -11 -12 -18 -22
-15 -22 4 0 -2 -12 -12 -28 -28 -42 -41 -64 -58 -98 -9 -17 -24 -40 -33 -51
-9 -10 -18 -25 -20 -33 -2 -7 -12 -26 -23 -42 -11 -15 -17 -28 -13 -28 4 0 -1
-7 -12 -15 -10 -8 -15 -15 -10 -15 4 0 -3 -15 -17 -34 -15 -18 -24 -36 -21
-38 2 -3 -7 -3 -22 0 -15 3 -24 1 -21 -4 3 -6 -3 -10 -14 -10 -10 0 -19 3 -19
6 0 9 -32 6 -48 -4 -7 -4 -12 -2 -12 6 0 9 -3 9 -10 -2 -7 -11 -10 -11 -10 -2
0 8 -5 10 -12 6 -18 -11 -48 -12 -48 -2 0 9 -42 4 -59 -6 -5 -4 -12 -2 -16 4
-3 5 -11 10 -16 10 -6 0 -8 -4 -5 -8 6 -10 -25 -9 -41 1 -7 5 -22 3 -34 -4
-13 -7 -19 -7 -15 -1 4 7 -7 9 -34 6 -24 -3 -40 -1 -40 6 0 11 47 86 67 108
16 17 17 25 1 16 -6 -4 1 9 16 29 16 20 24 37 20 37 -5 0 -4 4 2 8 6 4 25 34
44 67 19 33 37 62 40 65 4 3 10 15 14 28 4 12 12 20 17 17 5 -3 6 0 3 8 -3 8
2 20 11 27 8 7 15 18 15 26 0 7 14 29 30 48 17 19 29 38 28 43 -3 7 19 46 70
128 7 11 19 35 27 53 9 17 20 32 25 32 6 0 10 9 10 19 0 11 4 22 9 25 5 3 18
23 29 43 10 21 30 56 42 78 13 22 34 60 48 85 13 25 30 52 38 61 8 8 14 20 14
26 0 6 7 16 15 23 8 7 12 16 10 21 -3 4 0 11 7 16 7 4 24 30 38 57 13 27 29
54 35 60 5 6 19 29 30 51 11 22 27 46 35 53 9 8 10 11 2 7 -11 -6 -11 -3 0 16
7 13 19 29 26 37 6 7 12 20 12 28 0 8 4 14 8 14 9 0 29 37 30 54 0 5 4 12 9
15 8 6 27 37 51 84 7 15 17 27 22 27 5 0 7 7 4 15 -4 8 -2 15 3 15 5 0 21 25
37 55 15 30 32 55 37 55 5 0 9 8 9 19 0 10 6 23 13 29 7 6 24 34 37 62 13 27
27 50 32 50 5 0 6 5 3 10 -3 6 -1 10 4 10 6 0 11 6 11 14 0 8 7 16 15 20 14 5
14 10 1 40 -8 19 -12 37 -8 40 3 3 1 6 -5 6 -11 0 -40 59 -35 73 1 4 -5 7 -13
7 -13 0 -20 19 -16 43 1 5 -3 6 -9 2 -5 -3 -10 -2 -10 3 0 5 -22 46 -50 92
-27 46 -47 87 -44 92 3 4 -2 8 -11 8 -9 0 -14 4 -10 9 3 5 -2 17 -11 25 -8 9
-12 16 -8 16 4 0 -1 7 -12 15 -10 8 -15 15 -10 15 5 0 -1 11 -14 25 -13 14
-20 25 -16 25 4 0 -4 15 -18 33 -14 19 -23 37 -19 40 3 4 1 7 -6 7 -7 0 -9 5
-6 10 3 6 3 10 -2 10 -4 0 -21 24 -37 53 -17 28 -36 58 -43 65 -7 8 -11 17 -8
22 3 5 1 11 -5 15 -6 4 -7 11 -4 17 4 6 2 8 -3 5 -10 -6 -16 1 -23 28 -2 6
-10 16 -19 23 -13 11 -13 12 -1 7 8 -4 6 1 -4 9 -11 9 -17 16 -13 16 4 0 -1
10 -12 22 -11 11 -18 24 -16 28 2 4 -4 16 -14 27 -10 11 -22 29 -25 40 -4 12
-13 27 -21 33 -8 7 -15 21 -15 31 0 11 -4 19 -9 19 -5 0 -14 14 -21 30 -7 17
-16 30 -21 30 -5 0 -11 11 -15 25 -3 13 -12 29 -20 36 -8 6 -14 20 -14 30 0
10 -6 22 -12 26 -7 4 -24 28 -37 53 -14 25 -29 48 -35 52 -6 4 -7 8 -3 8 5 0
1 7 -7 16 -9 8 -14 20 -11 25 4 5 2 9 -4 9 -14 0 -42 55 -33 65 4 5 1 5 -5 1
-7 -4 -13 -2 -13 3 0 6 0 13 0 16 0 3 -12 18 -27 34 -26 28 -29 28 -44 13 -9
-9 -15 -20 -12 -24 2 -5 0 -8 -5 -8 -5 0 -14 -12 -21 -27 -7 -16 -20 -39 -29
-53 -9 -14 -17 -29 -17 -33 0 -4 -7 -12 -15 -17 -8 -5 -11 -10 -6 -10 5 0 4
-6 -2 -12 -5 -7 -21 -33 -34 -58 -14 -25 -33 -61 -44 -80 -10 -19 -25 -39 -32
-43 -7 -5 -10 -12 -7 -16 2 -5 -2 -14 -10 -21 -8 -7 -15 -18 -15 -25 0 -6 -9
-22 -20 -35 -11 -12 -17 -27 -14 -31 3 -5 1 -9 -4 -9 -4 0 -16 -15 -25 -32 -9
-18 -30 -55 -47 -83 -16 -27 -36 -61 -43 -75 -24 -50 -71 -125 -82 -132 -5 -4
-6 -8 -2 -8 5 0 0 -12 -11 -27 -11 -16 -20 -32 -21 -38 0 -5 -8 -18 -16 -28
-8 -9 -15 -21 -15 -26 0 -5 -6 -16 -12 -23 -13 -14 -36 -54 -66 -113 -9 -16
-20 -33 -26 -37 -7 -5 -7 -8 -1 -8 6 0 5 -3 -1 -8 -6 -4 -27 -36 -46 -72 -19
-36 -46 -84 -61 -107 -15 -24 -27 -47 -27 -53 0 -6 -4 -9 -8 -6 -4 2 -9 -5 -9
-16 -1 -11 -11 -30 -22 -42 -11 -11 -20 -25 -21 -31 0 -5 -9 -20 -20 -32 -10
-12 -16 -23 -14 -25 2 -3 -21 -3 -52 0 -35 3 -55 1 -51 -5 3 -5 0 -10 -8 -10
-8 0 -12 4 -9 9 3 4 -2 8 -11 8 -9 0 -14 -4 -11 -8 2 -4 -11 -8 -29 -8 -18 0
-31 4 -29 8 3 4 -2 8 -11 8 -9 0 -14 -4 -11 -8 2 -4 -4 -8 -14 -8 -10 0 -16 4
-14 8 3 4 -5 8 -18 8 -18 0 -20 -2 -8 -10 9 -6 10 -10 3 -10 -6 0 -14 4 -17 9
-3 5 -44 8 -91 7 -47 0 -81 0 -76 2 5 2 7 11 4 21 -2 10 2 25 11 33 8 9 12 18
9 22 -4 3 -1 6 6 6 7 0 10 4 6 9 -3 5 2 16 10 24 8 9 15 19 15 22 0 4 9 20 21
36 11 16 17 29 12 29 -4 0 1 7 11 15 11 8 16 15 12 15 -4 0 1 12 12 28 10 15
22 34 25 42 8 18 26 46 49 79 10 13 15 27 12 32 -3 5 -1 9 3 9 5 0 22 24 38
54 16 30 34 52 39 49 5 -3 6 -1 2 6 -4 6 2 24 13 40 12 16 21 34 21 39 0 5 7
13 16 16 8 3 12 11 9 17 -4 6 4 22 16 36 13 13 22 26 19 28 -3 3 2 12 10 22 9
10 16 21 18 26 4 18 36 74 51 91 9 10 14 19 12 20 -3 0 7 19 21 41 14 22 35
58 47 80 29 55 44 79 54 86 5 3 9 13 11 21 1 8 9 27 19 41 9 15 17 29 17 33 0
4 8 13 18 21 9 8 11 11 3 7 -8 -4 -3 8 12 28 15 19 27 40 27 45 0 6 7 14 15
17 9 3 15 11 13 18 -1 7 10 32 25 55 15 24 27 47 27 53 0 6 7 13 15 16 8 4 15
12 15 20 0 8 11 32 25 54 14 22 25 42 25 45 0 4 14 26 30 50 17 24 30 48 30
54 0 6 5 11 11 11 5 0 8 4 5 9 -3 5 1 14 9 21 8 7 12 16 9 21 -3 5 0 9 5 9 6
0 11 7 11 16 0 9 5 12 12 8 7 -5 9 -2 5 9 -3 8 3 25 14 38 10 12 19 28 19 34
0 7 7 16 16 19 9 4 14 9 11 12 -5 6 59 124 73 134 4 3 11 15 14 28 7 20 10 21
24 10 12 -10 14 -10 8 0z m-779 -2044 c-3 -3 -12 -4 -19 -1 -8 3 -5 6 6 6 11
1 17 -2 13 -5z m5510 -856 c-3 -8 -6 -5 -6 6 -1 11 2 17 5 13 3 -3 4 -12 1
-19z m-667 -1342 c0 -2 -8 -10 -17 -17 -16 -13 -17 -12 -4 4 13 16 21 21 21
13z"/>
<path d="M4639 5067 c-1 -4 -2 -10 -3 -14 -3 -15 -60 -108 -68 -111 -5 -2 -6
-7 -3 -12 3 -4 -2 -13 -10 -20 -8 -7 -15 -17 -15 -23 0 -5 -11 -25 -25 -42
-13 -18 -21 -35 -18 -39 4 -3 1 -6 -5 -6 -7 0 -12 -6 -12 -14 0 -7 -9 -25 -21
-40 -11 -14 -17 -26 -12 -26 4 0 0 -5 -10 -11 -9 -6 -15 -14 -12 -20 4 -5 1
-9 -5 -9 -6 0 -9 -4 -6 -9 3 -5 -1 -14 -9 -21 -8 -7 -15 -17 -15 -22 0 -5 -14
-29 -30 -54 -17 -24 -28 -44 -25 -44 3 0 -5 -15 -19 -33 -15 -19 -26 -39 -26
-45 0 -7 -5 -12 -11 -12 -5 0 -8 -4 -5 -9 3 -4 -6 -23 -19 -41 -14 -19 -25
-38 -25 -43 0 -4 -7 -15 -15 -24 -8 -8 -13 -19 -10 -24 4 -5 1 -9 -5 -9 -6 0
-15 -12 -20 -26 -6 -14 -21 -40 -35 -58 -14 -18 -22 -36 -18 -39 3 -4 1 -7 -6
-7 -7 0 -10 -4 -7 -8 3 -5 -4 -18 -14 -30 -11 -12 -20 -28 -20 -37 0 -9 -4
-13 -10 -10 -5 3 -10 3 -11 -2 -2 -28 -9 -47 -22 -61 -8 -10 -17 -24 -20 -32
-4 -8 -20 -37 -37 -65 -17 -27 -36 -60 -42 -72 -6 -13 -15 -23 -20 -23 -5 0
-6 -5 -3 -10 4 -6 -4 -25 -17 -43 -14 -18 -28 -39 -32 -47 -4 -8 -12 -24 -19
-35 -7 -11 -27 -47 -46 -80 -19 -33 -40 -63 -46 -67 -16 -10 -7 -57 16 -87 11
-13 19 -32 19 -43 0 -10 7 -21 15 -24 8 -4 15 -11 15 -17 0 -6 6 -18 14 -26 7
-9 29 -45 47 -81 19 -36 36 -67 39 -70 3 -3 12 -14 20 -24 13 -18 13 -19 0
-12 -8 4 -5 -1 8 -10 12 -9 22 -20 22 -25 0 -5 18 -39 40 -75 21 -35 35 -62
30 -59 -6 3 -7 -1 -4 -9 3 -9 11 -14 17 -13 6 1 12 -5 13 -13 0 -8 2 -21 2
-29 1 -8 5 -11 9 -8 6 6 14 -6 50 -74 7 -15 20 -32 28 -39 8 -7 15 -19 15 -27
0 -7 9 -26 19 -41 34 -48 100 -163 91 -157 -6 3 -7 -1 -4 -9 3 -9 11 -14 17
-13 6 1 13 -7 15 -18 2 -11 8 -22 11 -25 4 -3 18 -25 32 -50 13 -25 26 -47 29
-50 3 -3 14 -22 25 -42 11 -21 23 -38 26 -38 4 0 10 -14 14 -30 4 -17 10 -30
15 -30 4 0 13 -13 20 -30 7 -16 16 -30 21 -30 5 0 9 -7 9 -15 0 -9 9 -25 20
-37 11 -12 20 -30 20 -39 0 -10 8 -23 18 -28 9 -6 14 -11 9 -11 -8 0 44 -83
56 -88 4 -2 5 -8 1 -13 -3 -5 0 -9 5 -9 6 0 11 -7 11 -16 0 -31 26 -6 64 62
21 38 45 72 52 77 7 4 11 13 8 20 -2 7 4 24 16 37 11 13 20 29 20 37 0 7 6 12
13 11 6 -2 12 6 13 17 0 20 45 100 76 137 10 11 15 24 13 28 -3 4 2 13 10 20
8 7 12 16 9 21 -3 5 -1 9 4 9 5 0 15 15 23 33 7 17 15 34 19 37 12 11 44 65
42 73 -1 4 3 7 9 7 5 0 8 4 5 8 -3 5 4 18 14 30 11 12 20 28 20 36 0 8 3 16 8
18 4 2 18 24 31 50 14 26 29 45 33 42 4 -3 8 6 8 20 0 14 4 27 9 31 6 3 20 25
32 50 12 24 26 42 31 39 4 -3 8 3 8 13 0 10 11 35 25 55 14 20 25 41 25 45 0
7 49 85 68 108 10 13 11 15 18 43 4 12 10 22 14 22 4 0 11 11 14 25 4 14 11
23 16 20 5 -3 7 0 4 8 -3 8 2 20 11 27 8 7 15 18 15 25 0 7 7 16 16 19 8 3 13
10 10 14 -3 5 6 25 20 45 14 20 22 37 19 37 -4 0 3 14 15 30 l22 30 -23 48
c-12 26 -29 55 -37 65 -8 9 -12 17 -9 17 3 0 -9 23 -28 52 -19 28 -31 56 -28
61 3 6 1 7 -5 3 -7 -4 -12 -1 -12 7 0 8 -7 20 -15 27 -9 7 -13 15 -10 18 3 3
-1 12 -9 21 -7 9 -35 57 -61 106 -26 50 -51 92 -56 93 -5 2 -9 10 -9 17 0 8
-7 21 -16 29 -8 9 -13 16 -9 16 3 0 -3 13 -14 29 -12 16 -21 34 -21 40 0 6 -5
11 -11 11 -5 0 -8 4 -4 9 3 5 -2 16 -10 24 -8 9 -15 20 -15 26 0 5 -6 16 -12
23 -7 7 -22 31 -32 53 -11 22 -29 51 -40 64 -12 13 -16 21 -9 17 7 -4 -3 17
-22 46 -20 29 -38 62 -41 72 -4 11 -15 28 -24 39 -10 10 -16 26 -13 35 4 10 2
13 -5 8 -7 -4 -12 -1 -12 8 0 8 -6 21 -13 28 -7 7 -21 29 -30 48 -18 36 -44
83 -62 110 -5 8 -10 17 -10 20 0 3 -12 23 -26 45 -14 22 -31 55 -38 73 -8 17
-17 32 -21 32 -4 0 -15 17 -24 38 -30 69 -74 137 -77 119z"/>
</g>
</svg>
