<?xml version="1.0" encoding="UTF-8"?>
<svg viewBox="0 0 365 414" xmlns="http://www.w3.org/2000/svg" xmlns:xlink="http://www.w3.org/1999/xlink">
 <defs>
  <filter id="e">
   <feGaussianBlur stdDeviation="2.0824"/>
  </filter>
  <filter id="b">
   <feGaussianBlur stdDeviation="2.6836"/>
  </filter>
  <linearGradient id="a">
   <stop stop-color="#dfdfdf" offset="0"/>
   <stop stop-color="#fff" offset="1"/>
  </linearGradient>
  <linearGradient id="f" x1=".20689" x2=".86576" y1=".13719" y2=".63989">
   <stop stop-color="#9b6a06" offset="0"/>
   <stop stop-color="#b38e29" offset=".1028"/>
   <stop stop-color="#faf892" offset=".2502"/>
   <stop stop-color="#ddba32" offset=".5172"/>
   <stop stop-color="#cf9e08" offset=".6932"/>
   <stop stop-color="#976400" offset=".7358"/>
   <stop stop-color="#976400" offset="1"/>
  </linearGradient>
  <linearGradient id="g" x1="-.02964" x2=".49444" y1=".59825" y2=".8934">
   <stop stop-color="#a07100" offset="0"/>
   <stop stop-color="#f4f300" offset=".4304"/>
   <stop stop-color="#9e700b" offset="1"/>
  </linearGradient>
  <linearGradient id="h" x1=".26638" x2=".586" y1=".45688" y2=".74948">
   <stop stop-color="#a07100" offset="0"/>
   <stop stop-color="#f6f600" offset=".3816"/>
   <stop stop-color="#9e700b" offset="1"/>
  </linearGradient>
  <linearGradient id="i" x1=".24203" x2=".08808" y1=".88973" y2=".77676">
   <stop stop-color="#375a93" offset="0"/>
   <stop stop-color="#5c9eda" offset=".3696"/>
   <stop stop-color="#97cafd" offset=".5389"/>
   <stop stop-color="#8bbff3" offset=".7781"/>
   <stop stop-color="#2a629a" offset="1"/>
  </linearGradient>
  <linearGradient id="c" x1=".47289" x2=".21936" y1=".9597" y2=".06645" xlink:href="#a"/>
  <linearGradient id="d" x1=".18229" x2=".33594" y1=".12925" y2=".83674" xlink:href="#a"/>
 </defs>
 <g transform="matrix(3.3801 0 0 3.3801 -2322.2 -2174.7)">
  <path d="m764.59 651.12-77.562 18.969 21.094 95.781 78.844-19.281-22.375-95.469z" filter="url(#b)" opacity=".5167"/>
  <g transform="translate(40)">
   <path d="m649.04 666.11 21.076 95.755 78.842-19.255-22.377-95.495-77.541 18.995z" fill="url(#c)"/>
   <path d="m651 667.61 20.25 92 75.75-18.5-21.5-91.75-74.5 18.25z" fill="url(#d)"/>
  </g>
  <path d="m763.38 661.03a1.0001 1.0001 0 0 0 -0.15601 0.031l-64.719 15.751a1.0001 1.0001 0 1 0 0.46899 1.937l64.719-15.75a1.0001 1.0001 0 0 0 -0.31299 -1.969zm1.656 7.938a1.0051 1.0051 0 0 0 -0.15601 0.03101 1.0001 1.0001 0 0 0 -0.09399 0.03101l-64.343 15.907a1.0005 1.0005 0 1 0 0.5 1.937l64.343-15.906a1.0078 1.0078 0 1 0 -0.25 -2zm1.938 7.594a1.0051 1.0051 0 0 0 -0.156 0.031 1.0001 1.0001 0 0 0 -0.06299 0.03101l-65.781 15.906a1.0001 1.0001 0 1 0 0.469 1.938l65.781-15.907a1.0078 1.0078 0 1 0 -0.25 -2v9.8e-4zm1.344 8.156a1.0001 1.0001 0 0 0 -0.15698 0.03101l-65.406 16.094a1.0001 1.0001 0 1 0 0.46899 1.937l65.406-16.093a1.0001 1.0001 0 0 0 -0.31201 -1.969zm2 8.469a1.0051 1.0051 0 0 0 -0.15698 0.031 1.0001 1.0001 0 0 0 -0.06202 0.03101l-65.031 15.719a1.0001 1.0001 0 1 0 0.46802 1.937l65.032-15.718a1.0078 1.0078 0 1 0 -0.25 -2zm1.968 8.312a1.0051 1.0051 0 0 0 -0.15601 0.03101 1.0001 1.0001 0 0 0 -0.09399 0.031l-64.875 15.719a1.0001 1.0001 0 1 0 0.46899 1.938l64.906-15.719a1.0078 1.0078 0 1 0 -0.25 -2zm1.532 7.781a1.0001 1.0001 0 0 0 -0.18799 0.06298l-64.344 16.062a1.0005 1.0005 0 1 0 0.5 1.938l64.344-16.063a1.006 1.006 0 1 0 -0.21899 -2 1.0001 1.0001 0 0 0 -0.09302 0zm2.468 8.5a1.0001 1.0001 0 0 0 -0.15601 0.031l-65.781 15.907a1.0001 1.0001 0 1 0 0.469 1.937l65.781-15.906a1.0001 1.0001 0 0 0 -0.31298 -1.969zm1.813 7.938a1.0051 1.0051 0 0 0 -0.156 0.03101 1.0001 1.0001 0 0 0 -0.06299 0.03101l-65.594 15.906a1.0005 1.0005 0 1 0 0.5 1.938l65.563-15.906a1.0078 1.0078 0 1 0 -0.25 -2zm1.594 8.656a1.0051 1.0051 0 0 0 -0.15698 0.03101 1.0001 1.0001 0 0 0 -0.06202 0.031l-65.75 15.563a1.0001 1.0001 0 1 0 0.469 1.938l65.75-15.563a1.0078 1.0078 0 1 0 -0.25 -2z" fill="#547ca5"/>
  <path d="m784.41 657.16c-0.62104 0.02197-0.90601 0.21899-0.90601 0.21899l-4.312 4.906c-1.582-0.08503-2.407 0.40698-2.407 0.40698-17.946 22.171-36.035 44.498-46.718 59.406-4.278 5.969-7.895 11.265-9.032 14.094l0.125 0.09302-3.5 8.531 0.46899 0.31299c-0.27899 0.83099-0.79303 2.42-0.53101 2.594 0.34699 0.23102 1.562-0.76202 2.281-1.375l0.53101 0.34302 7.188-5.187 0.68702 0.56201s13.021-12.237 19.063-18.812c14.952-16.271 42.437-50.938 42.437-50.938s0.18597-0.47601 0.125-1.281c1.035-1.294 2.079-2.633 2.532-3.312 1.071-1.607 2.486-4.094-2.157-7.844-2.902-2.344-4.839-2.755-5.875-2.719z" filter="url(#e)" opacity=".5917"/>
  <g transform="translate(99.514 -.35355)">
   <path d="m676.8 661.61 5.179-5.893s2.143-1.25 6.786 2.5 3.214 6.25 2.1429 7.857-5.358 6.786-5.358 6.786l-8.75-11.25z" fill="url(#f)"/>
   <path d="m616.83 742.79s-1.088 3.075-0.75299 3.298c0.46301 0.30902 2.941-1.923 2.941-1.923l-2.188-1.375z" fill="url(#g)"/>
   <path d="m619.83 734.16-3.687 9 2.75 1.875 8.312-6-7.375-4.875z" fill="url(#h)"/>
   <path d="m675.27 661.04c-17.946 22.171-36.038 44.488-46.721 59.396-4.2776 5.9692-7.8923 11.276-9.0291 14.104l7.25 5.875s13.017-12.248 19.059-18.823c14.952-16.271 42.441-50.927 42.441-50.927s1.375-3.25-4.25-7.375-8.75-2.25-8.75-2.25z" fill="url(#i)"/>
  </g>
 </g>
 <text transform="matrix(3.4595 -.92807 .96721 3.6054 -553.15 82.579)" x="204.5" y="60" font-family="Cursive" font-size="24" text-anchor="middle">A+</text>
 <path d="m112.5 122" fill="none" stroke="#000" stroke-dasharray="null" stroke-linecap="round" stroke-linejoin="round"/>
</svg>
