<svg id="svg" version="1.1" xmlns="http://www.w3.org/2000/svg" xmlns:xlink="http://www.w3.org/1999/xlink" width="400" height="246.9879518072289" viewBox="0, 0, 400,246.9879518072289"><g id="svgg"><path id="path0" d="M318.221 36.335 C 311.303 39.822,297.358 44.836,285.979 47.929 C 285.028 48.188,283.582 48.581,282.767 48.802 C 280.371 49.454,276.668 50.404,275.602 50.640 C 275.059 50.761,273.891 51.041,273.008 51.264 C 272.125 51.487,270.457 51.875,269.302 52.126 C 262.460 53.614,259.902 54.155,258.802 54.347 C 258.122 54.466,256.733 54.731,255.713 54.936 C 254.694 55.141,252.860 55.486,251.637 55.703 C 250.414 55.921,248.857 56.209,248.178 56.343 C 246.882 56.599,244.741 56.951,242.248 57.319 C 241.433 57.439,239.654 57.715,238.295 57.932 C 235.554 58.369,233.238 58.706,230.636 59.048 C 229.685 59.173,227.628 59.448,226.065 59.659 C 220.249 60.446,208.698 61.699,201.112 62.366 C 178.778 64.329,159.863 65.087,133.045 65.095 C 106.907 65.102,94.709 64.694,63.002 62.750 C 57.402 62.406,49.443 61.799,48.287 61.627 C 46.854 61.414,46.498 62.094,45.499 66.955 C 43.326 77.522,42.742 83.379,42.742 94.626 C 42.742 105.144,43.189 110.058,44.955 118.962 C 45.863 123.542,47.840 130.633,49.135 133.948 C 49.259 134.267,49.663 135.306,50.033 136.257 C 50.403 137.208,50.918 138.464,51.177 139.047 C 51.437 139.630,51.823 140.541,52.035 141.071 C 52.824 143.044,56.396 149.874,57.354 151.243 C 57.607 151.603,57.813 152.003,57.813 152.131 C 57.813 152.495,58.737 153.239,58.887 152.995 C 58.961 152.876,58.923 152.007,58.803 151.065 C 57.567 141.380,56.881 116.770,57.568 106.769 C 58.479 93.522,59.081 88.378,60.784 79.308 C 61.287 76.630,59.680 76.838,74.367 77.552 C 86.064 78.121,90.800 78.320,98.332 78.557 C 102.613 78.692,108.247 78.870,110.853 78.952 C 118.643 79.197,160.393 79.106,168.393 78.826 C 186.299 78.201,193.131 77.850,207.536 76.820 C 216.787 76.159,231.862 74.710,238.295 73.864 C 239.246 73.739,241.414 73.466,243.113 73.257 C 244.812 73.048,246.924 72.767,247.807 72.633 C 248.691 72.499,250.581 72.220,252.007 72.014 C 260.205 70.826,267.802 69.519,274.985 68.061 C 276.683 67.716,278.518 67.334,279.061 67.212 C 279.605 67.089,280.883 66.811,281.902 66.593 C 290.764 64.698,305.442 60.594,309.697 58.820 C 309.969 58.706,310.692 58.419,311.303 58.180 C 311.915 57.942,312.749 57.605,313.156 57.433 C 315.404 56.482,315.865 56.334,316.223 56.450 C 316.710 56.608,323.410 66.027,323.410 66.554 C 323.410 66.599,323.946 67.570,324.601 68.711 C 325.985 71.120,329.339 78.032,329.339 78.474 C 329.339 78.552,329.495 78.966,329.686 79.394 C 330.844 81.996,332.814 88.046,333.912 92.378 C 335.336 97.994,336.036 102.089,336.995 110.403 C 338.573 124.098,336.524 146.045,332.263 161.087 C 331.858 162.514,331.375 164.246,331.189 164.935 C 328.739 174.006,323.026 187.066,318.306 194.387 C 316.719 196.848,316.567 196.923,315.072 195.966 C 312.741 194.475,303.866 189.875,301.544 188.955 C 301.001 188.739,299.944 188.286,299.197 187.947 C 298.450 187.608,297.227 187.085,296.479 186.784 C 295.732 186.483,294.898 186.140,294.626 186.022 C 292.258 184.993,282.424 181.500,280.049 180.844 C 279.642 180.732,278.697 180.457,277.949 180.235 C 277.202 180.012,276.257 179.737,275.849 179.623 C 275.442 179.509,273.941 179.085,272.514 178.680 C 271.087 178.276,267.918 177.482,265.473 176.916 C 263.027 176.350,260.581 175.782,260.037 175.655 C 259.494 175.527,258.104 175.250,256.949 175.039 C 255.794 174.828,254.404 174.555,253.860 174.432 C 252.983 174.234,247.309 173.339,242.866 172.697 C 239.421 172.199,233.643 171.605,225.942 170.957 C 221.511 170.584,204.613 170.367,198.023 170.598 L 192.588 170.789 194.441 171.240 C 195.460 171.487,196.655 171.695,197.097 171.701 C 198.293 171.716,203.192 172.530,207.783 173.475 C 209.209 173.769,210.821 174.097,211.365 174.205 C 217.806 175.478,231.332 179.228,238.172 181.636 C 239.327 182.043,241.050 182.635,242.001 182.951 C 244.854 183.899,253.382 187.088,254.849 187.755 C 255.120 187.879,256.510 188.446,257.937 189.017 C 260.466 190.028,261.378 190.417,264.059 191.628 C 264.776 191.952,265.408 192.217,265.465 192.217 C 265.521 192.217,266.525 192.662,267.696 193.206 C 268.867 193.749,269.861 194.194,269.904 194.194 C 270.218 194.194,283.572 200.765,287.461 202.833 C 294.596 206.628,304.820 212.385,306.400 213.497 C 306.761 213.751,307.114 213.959,307.185 213.959 C 307.321 213.959,314.316 218.310,318.763 221.160 C 321.654 223.013,321.807 223.065,322.392 222.397 C 322.612 222.146,323.420 221.228,324.188 220.359 C 327.317 216.814,335.022 206.016,335.022 205.175 C 335.022 205.109,335.308 204.601,335.658 204.047 C 337.993 200.348,343.012 189.974,345.087 184.558 C 347.132 179.221,348.863 174.133,350.299 169.240 C 351.241 166.032,351.448 165.232,352.540 160.593 C 352.998 158.645,354.011 153.725,354.549 150.834 C 355.038 148.204,355.773 142.691,356.296 137.739 C 356.947 131.569,356.947 114.484,356.295 108.929 C 355.614 103.116,355.024 98.998,354.530 96.603 C 353.853 93.318,352.950 89.343,352.510 87.708 C 352.236 86.689,351.925 85.522,351.819 85.114 C 351.046 82.135,348.573 75.087,347.189 71.919 C 346.986 71.456,346.497 70.292,346.101 69.332 C 342.103 59.637,333.907 47.287,325.314 38.011 C 321.828 34.248,322.193 34.334,318.221 36.335 M198.994 117.033 C 198.624 117.686,198.184 118.447,198.017 118.722 C 197.850 118.998,197.235 120.110,196.649 121.193 C 196.064 122.276,195.106 123.978,194.519 124.974 C 193.933 125.970,193.453 126.830,193.453 126.885 C 193.453 126.973,192.011 129.423,191.801 129.691 C 191.756 129.749,190.692 129.777,189.436 129.754 C 187.926 129.726,187.018 129.816,186.756 130.021 C 186.272 130.398,181.347 139.032,181.347 139.503 C 181.347 139.783,184.003 139.839,197.282 139.839 C 214.801 139.839,213.833 139.930,212.759 138.395 C 212.308 137.750,211.795 136.849,210.062 133.663 C 209.582 132.779,208.606 131.056,207.894 129.833 C 207.182 128.610,206.384 127.221,206.120 126.745 C 205.856 126.269,205.268 125.213,204.814 124.398 C 204.360 123.582,203.866 122.693,203.717 122.421 C 199.949 115.542,199.882 115.465,198.994 117.033 " stroke="none" fill="#f6c11e" fill-rule="evenodd"></path><path id="path1" d="M74.135 94.609 C 73.852 94.790,74.131 95.226,75.494 96.733 C 76.437 97.776,77.653 99.141,78.196 99.766 L 79.185 100.902 79.308 126.980 L 79.432 153.057 90.241 153.122 C 98.804 153.173,101.051 153.121,101.053 152.875 C 101.055 152.703,101.056 145.003,101.055 135.763 C 101.054 117.532,101.044 117.658,102.332 119.086 C 102.761 119.561,104.010 120.940,105.107 122.148 C 106.205 123.357,107.214 124.473,107.350 124.628 C 107.486 124.783,108.209 125.577,108.956 126.392 C 110.663 128.254,111.953 129.677,114.763 132.794 C 117.461 135.788,117.043 135.326,119.580 138.110 C 120.735 139.377,121.791 140.539,121.927 140.691 C 122.063 140.844,122.786 141.634,123.533 142.446 C 124.280 143.259,125.781 144.917,126.868 146.132 C 127.956 147.347,129.465 149.013,130.223 149.834 C 130.980 150.656,131.981 151.752,132.447 152.270 L 133.294 153.213 139.221 153.190 C 143.553 153.173,145.220 153.086,145.418 152.865 C 145.567 152.699,146.835 150.506,148.236 147.993 C 150.901 143.210,151.706 141.769,152.513 140.334 C 152.781 139.858,153.819 138.006,154.820 136.218 L 156.640 132.968 156.640 113.929 C 156.640 95.359,156.628 94.884,156.162 94.635 C 155.415 94.235,129.847 94.286,129.515 94.688 C 129.327 94.917,129.893 95.669,131.700 97.591 C 133.042 99.018,134.308 100.532,134.514 100.955 C 134.974 101.898,135.045 125.884,134.588 126.166 C 134.347 126.315,133.522 125.511,130.096 121.791 C 129.289 120.914,127.899 119.419,127.006 118.468 C 125.579 116.947,119.377 110.280,118.715 109.555 C 117.981 108.752,112.292 102.640,110.797 101.050 C 107.197 97.219,106.260 96.209,105.529 95.368 L 104.778 94.503 89.634 94.442 C 80.683 94.405,74.345 94.474,74.135 94.609 M175.497 94.775 C 175.413 94.992,175.445 95.242,175.566 95.331 C 175.809 95.507,179.804 99.939,180.310 100.593 C 180.570 100.930,180.544 101.144,180.161 101.828 C 179.906 102.283,179.328 103.323,178.876 104.138 C 178.424 104.954,177.831 106.010,177.559 106.485 C 177.287 106.961,176.097 109.074,174.915 111.180 C 173.733 113.286,172.545 115.398,172.274 115.874 C 171.720 116.846,166.544 126.018,165.580 127.733 C 165.237 128.345,164.419 129.778,163.763 130.919 C 163.106 132.059,162.569 133.024,162.569 133.062 C 162.569 133.100,161.885 134.335,161.049 135.806 C 160.213 137.277,159.250 138.981,158.909 139.592 C 157.832 141.521,157.512 142.090,155.156 146.263 C 151.795 152.215,151.395 152.960,151.502 153.067 C 151.586 153.150,166.897 153.280,168.049 153.207 C 168.276 153.193,168.620 152.875,168.811 152.502 C 169.003 152.128,170.196 149.988,171.462 147.746 C 172.728 145.503,173.951 143.335,174.179 142.928 C 174.408 142.520,174.875 141.686,175.217 141.075 C 176.744 138.349,181.403 130.118,182.594 128.042 L 183.905 125.757 186.153 125.757 C 189.027 125.757,189.045 125.742,191.201 121.871 C 192.167 120.135,193.304 118.104,193.727 117.356 C 194.149 116.609,194.835 115.386,195.250 114.639 C 196.971 111.539,197.283 110.990,198.512 108.899 C 199.485 107.243,199.860 106.788,200.055 107.030 C 200.275 107.304,202.339 110.938,204.518 114.886 C 204.855 115.497,205.211 116.109,205.309 116.245 C 205.408 116.380,205.819 117.103,206.224 117.851 C 206.821 118.951,209.292 123.355,211.977 128.104 C 212.208 128.511,212.766 129.512,213.218 130.327 C 214.304 132.285,218.076 138.995,219.940 142.285 C 220.654 143.545,220.722 143.537,208.956 143.542 C 197.936 143.545,197.567 143.576,198.370 144.422 C 198.492 144.552,199.611 146.492,200.856 148.734 C 202.100 150.976,203.206 152.899,203.312 153.007 C 203.528 153.226,248.047 153.270,248.267 153.051 C 248.343 152.974,248.289 152.722,248.146 152.490 C 248.003 152.259,247.578 151.513,247.200 150.834 C 246.823 150.154,245.874 148.487,245.091 147.128 C 244.308 145.769,242.672 142.878,241.455 140.704 C 240.238 138.530,239.019 136.362,238.747 135.886 C 238.475 135.411,237.882 134.355,237.430 133.539 C 236.977 132.724,236.030 131.056,235.325 129.833 C 234.621 128.610,233.012 125.775,231.750 123.533 C 230.488 121.291,229.266 119.123,229.036 118.715 C 228.805 118.308,228.250 117.307,227.803 116.492 C 227.355 115.676,226.907 114.898,226.807 114.762 C 226.707 114.626,226.259 113.848,225.811 113.033 C 225.363 112.217,224.774 111.161,224.503 110.686 C 223.721 109.315,218.720 100.443,217.121 97.591 C 216.322 96.164,215.484 94.858,215.260 94.688 C 214.565 94.161,175.700 94.245,175.497 94.775 M236.308 94.644 C 236.174 94.861,236.805 95.755,237.687 96.599 C 237.761 96.669,238.678 97.697,239.726 98.884 L 241.631 101.041 241.631 115.619 L 241.631 130.196 242.328 131.374 C 243.351 133.100,245.305 136.539,247.066 139.716 C 247.518 140.531,248.111 141.587,248.383 142.063 C 248.655 142.539,249.845 144.651,251.027 146.757 C 252.210 148.863,253.505 151.143,253.907 151.822 L 254.636 153.057 284.120 153.181 C 300.337 153.249,314.226 153.249,314.986 153.181 L 316.368 153.057 316.431 124.054 C 316.477 102.826,316.419 94.960,316.215 94.715 C 315.858 94.284,289.448 94.210,289.183 94.639 C 289.095 94.782,290.061 96.032,291.330 97.417 C 292.600 98.802,293.833 100.152,294.072 100.417 C 294.479 100.870,294.502 102.094,294.442 120.308 L 294.379 139.716 279.432 139.784 C 271.211 139.822,264.235 139.792,263.930 139.718 L 263.375 139.584 263.312 117.043 L 263.249 94.503 249.861 94.439 C 240.403 94.394,236.425 94.454,236.308 94.644 " stroke="none" fill="#fbfbfb" fill-rule="evenodd"></path><path id="path2" d="M0.000 123.533 L 0.000 247.066 200.000 247.066 L 400.000 247.066 400.000 123.533 L 400.000 0.000 200.000 0.000 L 0.000 0.000 0.000 123.533 M325.314 38.011 C 333.907 47.287,342.103 59.637,346.101 69.332 C 346.497 70.292,346.986 71.456,347.189 71.919 C 348.573 75.087,351.046 82.135,351.819 85.114 C 351.925 85.522,352.236 86.689,352.510 87.708 C 352.950 89.343,353.853 93.318,354.530 96.603 C 355.024 98.998,355.614 103.116,356.295 108.929 C 356.947 114.484,356.947 131.569,356.296 137.739 C 355.773 142.691,355.038 148.204,354.549 150.834 C 354.011 153.725,352.998 158.645,352.540 160.593 C 351.448 165.232,351.241 166.032,350.299 169.240 C 348.863 174.133,347.132 179.221,345.087 184.558 C 343.012 189.974,337.993 200.348,335.658 204.047 C 335.308 204.601,335.022 205.109,335.022 205.175 C 335.022 206.016,327.317 216.814,324.188 220.359 C 323.420 221.228,322.612 222.146,322.392 222.397 C 321.807 223.065,321.654 223.013,318.763 221.160 C 314.316 218.310,307.321 213.959,307.185 213.959 C 307.114 213.959,306.761 213.751,306.400 213.497 C 304.820 212.385,294.596 206.628,287.461 202.833 C 283.572 200.765,270.218 194.194,269.904 194.194 C 269.861 194.194,268.867 193.749,267.696 193.206 C 266.525 192.662,265.521 192.217,265.465 192.217 C 265.408 192.217,264.776 191.952,264.059 191.628 C 261.378 190.417,260.466 190.028,257.937 189.017 C 256.510 188.446,255.120 187.879,254.849 187.755 C 253.382 187.088,244.854 183.899,242.001 182.951 C 241.050 182.635,239.327 182.043,238.172 181.636 C 231.332 179.228,217.806 175.478,211.365 174.205 C 210.821 174.097,209.209 173.769,207.783 173.475 C 203.192 172.530,198.293 171.716,197.097 171.701 C 196.655 171.695,195.460 171.487,194.441 171.240 L 192.588 170.789 198.023 170.598 C 204.613 170.367,221.511 170.584,225.942 170.957 C 233.643 171.605,239.421 172.199,242.866 172.697 C 247.309 173.339,252.983 174.234,253.860 174.432 C 254.404 174.555,255.794 174.828,256.949 175.039 C 258.104 175.250,259.494 175.527,260.037 175.655 C 260.581 175.782,263.027 176.350,265.473 176.916 C 267.918 177.482,271.087 178.276,272.514 178.680 C 273.941 179.085,275.442 179.509,275.849 179.623 C 276.257 179.737,277.202 180.012,277.949 180.235 C 278.697 180.457,279.642 180.732,280.049 180.844 C 282.424 181.500,292.258 184.993,294.626 186.022 C 294.898 186.140,295.732 186.483,296.479 186.784 C 297.227 187.085,298.450 187.608,299.197 187.947 C 299.944 188.286,301.001 188.739,301.544 188.955 C 303.866 189.875,312.741 194.475,315.072 195.966 C 316.567 196.923,316.719 196.848,318.306 194.387 C 323.026 187.066,328.739 174.006,331.189 164.935 C 331.375 164.246,331.858 162.514,332.263 161.087 C 334.189 154.288,336.097 143.958,336.758 136.751 C 337.560 127.997,337.666 116.228,336.995 110.403 C 336.036 102.089,335.336 97.994,333.912 92.378 C 332.814 88.046,330.844 81.996,329.686 79.394 C 329.495 78.966,329.339 78.552,329.339 78.474 C 329.339 78.032,325.985 71.120,324.601 68.711 C 323.946 67.570,323.410 66.599,323.410 66.554 C 323.410 66.027,316.710 56.608,316.223 56.450 C 315.865 56.334,315.404 56.482,313.156 57.433 C 312.749 57.605,311.915 57.942,311.303 58.180 C 310.692 58.419,309.969 58.706,309.697 58.820 C 308.013 59.522,298.971 62.333,294.750 63.466 C 290.789 64.530,285.285 65.870,281.902 66.593 C 280.883 66.811,279.605 67.089,279.061 67.212 C 276.501 67.788,271.129 68.846,267.202 69.547 C 261.314 70.598,257.484 71.220,252.007 72.014 C 250.581 72.220,248.691 72.499,247.807 72.633 C 246.924 72.767,244.812 73.048,243.113 73.257 C 241.414 73.466,239.246 73.739,238.295 73.864 C 231.862 74.710,216.787 76.159,207.536 76.820 C 193.131 77.850,186.299 78.201,168.393 78.826 C 160.393 79.106,118.643 79.197,110.853 78.952 C 108.247 78.870,102.613 78.692,98.332 78.557 C 90.800 78.320,86.064 78.121,74.367 77.552 C 59.680 76.838,61.287 76.630,60.784 79.308 C 59.081 88.378,58.479 93.522,57.568 106.769 C 56.881 116.770,57.567 141.380,58.803 151.065 C 58.923 152.007,58.961 152.876,58.887 152.995 C 58.737 153.239,57.813 152.495,57.813 152.131 C 57.813 152.003,57.607 151.603,57.354 151.243 C 56.396 149.874,52.824 143.044,52.035 141.071 C 51.823 140.541,51.437 139.630,51.177 139.047 C 50.918 138.464,50.403 137.208,50.033 136.257 C 49.663 135.306,49.259 134.267,49.135 133.948 C 47.422 129.561,45.275 121.312,44.236 115.133 C 41.918 101.337,42.156 84.269,44.864 70.167 C 46.412 62.100,46.697 61.390,48.287 61.627 C 49.443 61.799,57.402 62.406,63.002 62.750 C 94.709 64.694,106.907 65.102,133.045 65.095 C 159.863 65.087,178.778 64.329,201.112 62.366 C 208.698 61.699,220.249 60.446,226.065 59.659 C 227.628 59.448,229.685 59.173,230.636 59.048 C 233.238 58.706,235.554 58.369,238.295 57.932 C 239.654 57.715,241.433 57.439,242.248 57.319 C 244.741 56.951,246.882 56.599,248.178 56.343 C 248.857 56.209,250.414 55.921,251.637 55.703 C 252.860 55.486,254.694 55.141,255.713 54.936 C 256.733 54.731,258.122 54.466,258.802 54.347 C 259.902 54.155,262.460 53.614,269.302 52.126 C 270.457 51.875,272.125 51.487,273.008 51.264 C 273.891 51.041,275.059 50.761,275.602 50.640 C 276.668 50.404,280.371 49.454,282.767 48.802 C 283.582 48.581,285.028 48.188,285.979 47.929 C 297.358 44.836,311.303 39.822,318.221 36.335 C 322.193 34.334,321.828 34.248,325.314 38.011 M105.529 95.368 C 106.260 96.209,107.197 97.219,110.797 101.050 C 112.292 102.640,117.981 108.752,118.715 109.555 C 119.377 110.280,125.579 116.947,127.006 118.468 C 127.899 119.419,129.289 120.914,130.096 121.791 C 133.522 125.511,134.347 126.315,134.588 126.166 C 135.045 125.884,134.974 101.898,134.514 100.955 C 134.308 100.532,133.042 99.018,131.700 97.591 C 129.893 95.669,129.327 94.917,129.515 94.688 C 129.847 94.286,155.415 94.235,156.162 94.635 C 156.628 94.884,156.640 95.359,156.640 113.929 L 156.640 132.968 154.820 136.218 C 153.819 138.006,152.781 139.858,152.513 140.334 C 151.706 141.769,150.901 143.210,148.236 147.993 C 146.835 150.506,145.567 152.699,145.418 152.865 C 145.220 153.086,143.553 153.173,139.221 153.190 L 133.294 153.213 132.447 152.270 C 131.981 151.752,130.980 150.656,130.223 149.834 C 129.465 149.013,127.956 147.347,126.868 146.132 C 125.781 144.917,124.280 143.259,123.533 142.446 C 122.786 141.634,122.063 140.844,121.927 140.691 C 121.791 140.539,120.735 139.377,119.580 138.110 C 117.043 135.326,117.461 135.788,114.763 132.794 C 111.953 129.677,110.663 128.254,108.956 126.392 C 108.209 125.577,107.486 124.783,107.350 124.628 C 107.214 124.473,106.205 123.357,105.107 122.148 C 104.010 120.940,102.761 119.561,102.332 119.086 C 101.044 117.658,101.054 117.532,101.055 135.763 C 101.056 145.003,101.055 152.703,101.053 152.875 C 101.051 153.121,98.804 153.173,90.241 153.122 L 79.432 153.057 79.308 126.980 L 79.185 100.902 78.196 99.766 C 77.653 99.141,76.437 97.776,75.494 96.733 C 74.131 95.226,73.852 94.790,74.135 94.609 C 74.345 94.474,80.683 94.405,89.634 94.442 L 104.778 94.503 105.529 95.368 M215.260 94.688 C 215.484 94.858,216.322 96.164,217.121 97.591 C 218.720 100.443,223.721 109.315,224.503 110.686 C 224.774 111.161,225.363 112.217,225.811 113.033 C 226.259 113.848,226.707 114.626,226.807 114.762 C 226.907 114.898,227.355 115.676,227.803 116.492 C 228.250 117.307,228.805 118.308,229.036 118.715 C 229.266 119.123,230.488 121.291,231.750 123.533 C 233.012 125.775,234.621 128.610,235.325 129.833 C 236.030 131.056,236.977 132.724,237.430 133.539 C 237.882 134.355,238.475 135.411,238.747 135.886 C 239.019 136.362,240.238 138.530,241.455 140.704 C 242.672 142.878,244.308 145.769,245.091 147.128 C 245.874 148.487,246.823 150.154,247.200 150.834 C 247.578 151.513,248.003 152.259,248.146 152.490 C 248.289 152.722,248.343 152.974,248.267 153.051 C 248.047 153.270,203.528 153.226,203.312 153.007 C 203.206 152.899,202.100 150.976,200.856 148.734 C 199.611 146.492,198.492 144.552,198.370 144.422 C 197.567 143.576,197.936 143.545,208.956 143.542 C 220.722 143.537,220.654 143.545,219.940 142.285 C 218.076 138.995,214.304 132.285,213.218 130.327 C 212.766 129.512,212.208 128.511,211.977 128.104 C 209.292 123.355,206.821 118.951,206.224 117.851 C 205.819 117.103,205.408 116.380,205.309 116.245 C 205.211 116.109,204.855 115.497,204.518 114.886 C 202.339 110.938,200.275 107.304,200.055 107.030 C 199.860 106.788,199.485 107.243,198.512 108.899 C 197.283 110.990,196.971 111.539,195.250 114.639 C 194.835 115.386,194.149 116.609,193.727 117.356 C 193.304 118.104,192.167 120.135,191.201 121.871 C 189.045 125.742,189.027 125.757,186.153 125.757 L 183.905 125.757 182.594 128.042 C 181.403 130.118,176.744 138.349,175.217 141.075 C 174.875 141.686,174.408 142.520,174.179 142.928 C 173.951 143.335,172.728 145.503,171.462 147.746 C 170.196 149.988,169.003 152.128,168.811 152.502 C 168.620 152.875,168.276 153.193,168.049 153.207 C 166.897 153.280,151.586 153.150,151.502 153.067 C 151.395 152.960,151.795 152.215,155.156 146.263 C 157.512 142.090,157.832 141.521,158.909 139.592 C 159.250 138.981,160.213 137.277,161.049 135.806 C 161.885 134.335,162.569 133.100,162.569 133.062 C 162.569 133.024,163.106 132.059,163.763 130.919 C 164.419 129.778,165.237 128.345,165.580 127.733 C 166.544 126.018,171.720 116.846,172.274 115.874 C 172.545 115.398,173.733 113.286,174.915 111.180 C 176.097 109.074,177.287 106.961,177.559 106.485 C 177.831 106.010,178.424 104.954,178.876 104.138 C 179.328 103.323,179.906 102.283,180.161 101.828 C 180.544 101.144,180.570 100.930,180.310 100.593 C 179.804 99.939,175.809 95.507,175.566 95.331 C 175.445 95.242,175.413 94.992,175.497 94.775 C 175.700 94.245,214.565 94.161,215.260 94.688 M263.312 117.043 L 263.375 139.584 263.930 139.718 C 264.235 139.792,271.211 139.822,279.432 139.784 L 294.379 139.716 294.442 120.308 C 294.502 102.094,294.479 100.870,294.072 100.417 C 293.833 100.152,292.600 98.802,291.330 97.417 C 290.061 96.032,289.095 94.782,289.183 94.639 C 289.448 94.210,315.858 94.284,316.215 94.715 C 316.419 94.960,316.477 102.826,316.431 124.054 L 316.368 153.057 314.986 153.181 C 314.226 153.249,300.337 153.249,284.120 153.181 L 254.636 153.057 253.907 151.822 C 253.505 151.143,252.210 148.863,251.027 146.757 C 249.845 144.651,248.655 142.539,248.383 142.063 C 248.111 141.587,247.518 140.531,247.066 139.716 C 245.305 136.539,243.351 133.100,242.328 131.374 L 241.631 130.196 241.631 115.619 L 241.631 101.041 239.726 98.884 C 238.678 97.697,237.761 96.669,237.687 96.599 C 235.243 94.260,234.644 94.366,249.861 94.439 L 263.249 94.503 263.312 117.043 M201.883 119.156 C 202.743 120.680,203.568 122.149,203.717 122.421 C 203.866 122.693,204.360 123.582,204.814 124.398 C 205.268 125.213,205.856 126.269,206.120 126.745 C 206.384 127.221,207.182 128.610,207.894 129.833 C 208.606 131.056,209.582 132.779,210.062 133.663 C 211.795 136.849,212.308 137.750,212.759 138.395 C 213.833 139.930,214.801 139.839,197.282 139.839 C 184.003 139.839,181.347 139.783,181.347 139.503 C 181.347 139.032,186.272 130.398,186.756 130.021 C 187.018 129.816,187.926 129.726,189.436 129.754 C 190.692 129.777,191.756 129.749,191.801 129.691 C 192.011 129.423,193.453 126.973,193.453 126.885 C 193.453 126.830,193.933 125.970,194.519 124.974 C 195.106 123.978,196.064 122.276,196.649 121.193 C 197.235 120.110,197.850 118.998,198.017 118.722 C 198.184 118.447,198.624 117.686,198.994 117.033 C 199.834 115.551,199.857 115.568,201.883 119.156 " stroke="none" fill="#043875" fill-rule="evenodd"></path></g></svg>