<svg id="svg" xmlns="http://www.w3.org/2000/svg" xmlns:xlink="http://www.w3.org/1999/xlink" width="400" height="399.7473152242577" viewBox="0, 0, 400,399.7473152242577" version="1.1"><g id="svgg"><path id="path0" d="M266.709 36.137 C 266.014 36.243,264.820 36.563,264.056 36.847 C 263.291 37.131,261.642 37.548,260.392 37.774 C 259.141 37.999,257.606 38.445,256.980 38.765 C 256.355 39.085,255.250 39.487,254.525 39.659 C 253.800 39.830,252.720 40.291,252.125 40.682 C 251.529 41.074,250.534 41.530,249.912 41.695 C 249.291 41.860,248.470 42.258,248.088 42.579 C 247.706 42.901,246.831 43.350,246.142 43.579 C 245.454 43.808,244.747 44.167,244.572 44.378 C 244.397 44.589,243.564 45.095,242.721 45.501 C 240.769 46.443,240.207 46.832,235.887 50.232 C 233.863 51.825,227.597 58.099,226.024 60.106 C 225.331 60.992,224.555 61.902,224.301 62.128 C 224.047 62.354,223.661 62.881,223.444 63.298 C 223.227 63.714,222.771 64.397,222.431 64.814 C 221.628 65.797,220.245 68.048,219.559 69.488 C 219.261 70.114,218.756 70.974,218.438 71.401 C 218.119 71.827,217.737 72.623,217.589 73.170 C 217.441 73.716,217.049 74.561,216.718 75.047 C 216.387 75.534,215.919 76.613,215.677 77.445 C 215.436 78.277,214.972 79.414,214.647 79.972 C 214.322 80.529,213.921 81.781,213.757 82.754 C 213.592 83.727,213.197 85.149,212.880 85.913 C 212.562 86.678,212.225 87.758,212.131 88.314 C 212.037 88.869,211.847 89.694,211.709 90.145 L 211.458 90.967 209.600 90.967 C 208.578 90.967,206.000 90.743,203.871 90.470 C 194.419 89.258,182.964 89.259,177.148 90.472 C 175.837 90.746,172.880 91.148,170.578 91.367 C 168.022 91.610,165.852 91.956,165.003 92.257 C 164.239 92.528,162.428 92.927,160.979 93.144 C 159.530 93.361,157.724 93.813,156.967 94.148 C 156.209 94.483,154.893 94.870,154.042 95.007 C 152.200 95.304,151.360 95.547,149.842 96.224 C 149.217 96.502,148.023 96.864,147.189 97.028 C 146.355 97.192,145.275 97.580,144.788 97.891 C 144.302 98.201,143.130 98.643,142.183 98.874 C 141.236 99.104,140.132 99.528,139.729 99.815 C 139.326 100.102,138.346 100.560,137.551 100.834 C 136.756 101.107,135.917 101.502,135.686 101.711 C 135.455 101.920,134.545 102.374,133.664 102.719 C 132.783 103.064,131.827 103.560,131.539 103.821 C 131.252 104.082,130.429 104.487,129.710 104.720 C 128.991 104.954,128.252 105.326,128.067 105.549 C 127.883 105.771,127.050 106.286,126.216 106.694 C 123.238 108.149,122.055 108.811,121.486 109.341 C 121.169 109.636,120.398 110.074,119.773 110.315 C 119.147 110.555,118.351 111.006,118.004 111.317 C 117.656 111.627,117.031 112.054,116.614 112.264 C 115.749 112.700,113.499 114.142,112.192 115.099 C 110.884 116.056,108.885 117.439,108.023 117.984 C 107.606 118.248,106.924 118.763,106.507 119.130 C 106.090 119.496,105.180 120.258,104.485 120.821 C 101.492 123.250,100.551 124.099,97.795 126.856 C 96.194 128.459,94.030 130.729,92.988 131.901 C 91.130 133.988,90.345 134.860,88.313 137.088 C 86.041 139.580,85.484 140.241,84.397 141.726 C 83.771 142.581,82.862 143.789,82.375 144.410 C 81.889 145.032,81.093 146.056,80.606 146.687 C 80.120 147.318,79.424 148.200,79.061 148.648 C 78.697 149.096,78.101 150.054,77.737 150.775 C 77.373 151.497,76.918 152.180,76.727 152.292 C 76.536 152.404,76.180 152.893,75.936 153.380 C 75.693 153.866,75.285 154.493,75.030 154.773 C 74.775 155.052,74.335 155.805,74.052 156.445 C 73.769 157.085,73.347 157.766,73.114 157.958 C 72.881 158.150,72.468 158.819,72.196 159.444 C 71.924 160.069,71.433 160.940,71.105 161.379 C 70.777 161.818,70.322 162.728,70.094 163.401 C 69.865 164.074,69.417 164.936,69.097 165.316 C 68.777 165.697,68.338 166.617,68.122 167.361 C 67.906 168.105,67.487 169.021,67.192 169.396 C 66.897 169.771,66.490 170.712,66.288 171.486 C 66.085 172.260,65.652 173.307,65.325 173.813 C 64.998 174.318,64.549 175.454,64.328 176.337 C 64.107 177.220,63.694 178.269,63.410 178.667 C 63.126 179.066,62.724 180.208,62.516 181.205 C 62.308 182.202,61.868 183.485,61.539 184.055 C 61.209 184.625,60.752 186.105,60.523 187.344 C 60.294 188.582,59.878 190.045,59.598 190.594 C 59.318 191.143,58.870 192.874,58.602 194.440 C 58.334 196.007,57.890 197.796,57.616 198.416 C 57.299 199.133,56.974 200.867,56.722 203.182 C 56.504 205.184,56.097 207.789,55.817 208.970 C 54.438 214.796,54.456 238.700,55.845 244.473 C 56.113 245.584,56.507 248.086,56.723 250.032 C 56.974 252.304,57.331 254.156,57.721 255.212 C 58.055 256.115,58.509 258.039,58.729 259.487 C 58.971 261.079,59.337 262.473,59.656 263.013 C 59.945 263.503,60.350 264.869,60.556 266.048 C 60.768 267.262,61.194 268.641,61.537 269.228 C 61.871 269.797,62.317 271.084,62.528 272.087 C 62.739 273.090,63.187 274.337,63.523 274.858 C 63.860 275.379,64.264 276.431,64.421 277.195 C 64.579 277.960,64.995 279.001,65.347 279.509 C 65.699 280.016,66.159 281.093,66.370 281.901 C 66.581 282.710,66.976 283.683,67.247 284.064 C 67.518 284.445,67.959 285.394,68.228 286.174 C 68.496 286.953,69.003 287.933,69.354 288.351 C 69.706 288.768,69.994 289.277,69.994 289.480 C 69.994 289.986,70.882 291.687,71.349 292.075 C 71.558 292.249,71.803 292.725,71.893 293.134 C 71.983 293.542,72.502 294.469,73.046 295.194 C 73.591 295.919,74.037 296.648,74.037 296.815 C 74.037 296.982,74.306 297.440,74.634 297.833 C 74.963 298.226,75.523 299.123,75.878 299.826 C 76.233 300.530,76.712 301.261,76.941 301.452 C 77.171 301.642,77.583 302.238,77.857 302.775 C 78.131 303.312,78.525 303.817,78.733 303.897 C 78.942 303.977,79.340 304.489,79.619 305.035 C 80.207 306.189,81.504 308.021,82.626 309.286 C 83.058 309.773,83.832 310.708,84.346 311.366 C 91.375 320.350,102.187 331.404,106.477 333.989 C 106.878 334.231,107.698 334.826,108.299 335.313 C 110.481 337.077,112.546 338.532,114.297 339.539 C 114.969 339.924,115.903 340.537,116.374 340.901 C 116.845 341.264,117.603 341.712,118.059 341.894 C 118.515 342.077,119.262 342.547,119.718 342.939 C 120.175 343.331,120.702 343.651,120.890 343.651 C 121.078 343.651,121.825 344.059,122.550 344.558 C 123.275 345.057,124.226 345.584,124.663 345.730 C 125.100 345.876,125.685 346.200,125.963 346.449 C 126.241 346.698,127.223 347.241,128.145 347.654 C 129.066 348.067,129.893 348.522,129.981 348.665 C 130.070 348.808,130.794 349.168,131.590 349.465 C 132.387 349.762,133.266 350.210,133.544 350.460 C 133.822 350.711,134.640 351.108,135.362 351.342 C 136.083 351.577,136.972 352.003,137.337 352.290 C 137.702 352.577,138.685 353.025,139.523 353.286 C 140.361 353.546,141.325 353.979,141.665 354.247 C 142.006 354.515,143.084 354.916,144.061 355.138 C 145.037 355.360,146.368 355.815,147.018 356.150 C 147.668 356.484,148.939 356.896,149.842 357.066 C 150.745 357.236,152.280 357.688,153.253 358.070 C 154.226 358.453,155.869 358.894,156.903 359.052 C 157.938 359.209,159.249 359.543,159.818 359.795 C 161.185 360.400,162.929 360.772,165.317 360.968 C 166.394 361.057,168.379 361.403,169.729 361.737 C 174.008 362.797,176.414 362.902,193.936 362.798 L 210.360 362.700 212.803 362.019 C 214.146 361.645,216.721 361.175,218.523 360.975 C 220.777 360.725,222.264 360.417,223.282 359.990 C 224.097 359.648,225.673 359.233,226.785 359.068 C 227.896 358.903,229.602 358.453,230.575 358.067 C 231.548 357.682,233.140 357.230,234.112 357.063 C 235.085 356.895,236.344 356.489,236.909 356.159 C 237.475 355.829,238.706 355.381,239.646 355.164 C 240.585 354.946,241.828 354.493,242.408 354.157 C 242.987 353.822,243.930 353.424,244.502 353.273 C 245.074 353.123,245.959 352.668,246.469 352.263 C 246.978 351.858,247.843 351.450,248.389 351.358 C 248.936 351.266,249.800 350.859,250.310 350.454 C 250.820 350.048,251.671 349.600,252.202 349.457 C 252.733 349.314,253.507 348.911,253.922 348.562 C 254.338 348.212,255.224 347.745,255.892 347.523 C 256.560 347.302,257.334 346.916,257.612 346.666 C 257.890 346.417,258.686 345.969,259.381 345.673 C 260.076 345.376,260.872 344.921,261.150 344.662 C 261.428 344.403,262.183 343.965,262.828 343.689 C 263.472 343.413,264.078 343.062,264.173 342.908 C 264.267 342.755,265.047 342.276,265.906 341.843 C 266.764 341.411,267.788 340.788,268.181 340.459 C 268.574 340.130,269.029 339.860,269.192 339.859 C 269.355 339.857,269.988 339.459,270.598 338.974 C 271.208 338.489,271.805 338.092,271.924 338.092 C 272.043 338.092,272.567 337.710,273.088 337.242 C 273.610 336.775,274.401 336.206,274.845 335.979 C 275.290 335.751,275.745 335.411,275.856 335.223 C 275.967 335.035,276.513 334.574,277.069 334.200 C 280.362 331.981,280.408 331.941,286.418 325.995 C 290.578 321.880,293.468 318.812,294.661 317.246 C 295.585 316.032,298.564 312.514,299.376 311.677 C 299.786 311.254,300.303 310.557,300.525 310.128 C 300.747 309.699,301.098 309.283,301.304 309.203 C 301.510 309.124,301.871 308.684,302.106 308.225 C 302.341 307.766,302.887 306.983,303.319 306.485 C 303.752 305.987,304.305 305.248,304.549 304.843 C 305.179 303.794,306.112 302.466,306.871 301.541 C 307.230 301.103,307.744 300.247,308.013 299.639 C 308.282 299.031,308.792 298.261,309.147 297.928 C 309.501 297.594,309.792 297.184,309.792 297.015 C 309.792 296.847,310.200 296.115,310.698 295.390 C 311.197 294.665,311.724 293.715,311.870 293.277 C 312.015 292.840,312.399 292.197,312.722 291.847 C 313.045 291.498,313.489 290.702,313.709 290.079 C 313.928 289.455,314.385 288.544,314.724 288.054 C 315.063 287.564,315.500 286.632,315.696 285.983 C 315.891 285.333,316.294 284.494,316.590 284.117 C 316.886 283.741,317.309 282.797,317.529 282.020 C 317.749 281.242,318.192 280.147,318.514 279.586 C 318.836 279.025,319.289 277.835,319.520 276.943 C 319.751 276.050,320.212 274.855,320.544 274.289 C 320.876 273.723,321.305 272.507,321.498 271.588 C 321.691 270.669,322.101 269.508,322.410 269.008 C 322.722 268.504,323.131 267.171,323.329 266.014 C 323.526 264.867,323.964 263.361,324.304 262.666 C 324.664 261.928,325.088 260.318,325.324 258.793 C 325.546 257.357,325.998 255.368,326.329 254.371 C 326.665 253.360,327.061 251.274,327.224 249.653 C 327.385 248.054,327.688 246.008,327.899 245.104 C 329.393 238.687,329.558 215.632,328.155 209.223 C 327.806 207.625,327.447 205.521,327.359 204.548 C 327.050 201.154,326.675 199.051,326.101 197.510 C 325.783 196.656,325.386 195.000,325.218 193.829 C 325.043 192.612,324.655 191.206,324.310 190.544 C 323.979 189.908,323.577 188.534,323.417 187.492 C 323.257 186.450,322.812 184.972,322.429 184.207 C 322.045 183.443,321.599 182.194,321.437 181.431 C 321.275 180.669,320.903 179.646,320.611 179.157 C 320.319 178.669,319.878 177.492,319.630 176.542 C 319.383 175.593,318.898 174.399,318.554 173.889 C 318.209 173.380,317.748 172.327,317.528 171.550 C 317.308 170.772,316.894 169.839,316.608 169.475 C 316.321 169.111,315.911 168.211,315.695 167.476 C 315.480 166.742,315.079 165.898,314.806 165.602 C 314.532 165.306,314.160 164.567,313.978 163.960 C 313.312 161.735,313.353 161.674,319.745 155.262 C 326.871 148.115,328.780 146.036,331.901 142.027 C 332.457 141.313,333.339 140.214,333.860 139.585 C 334.381 138.955,334.807 138.338,334.807 138.212 C 334.807 138.086,335.133 137.610,335.530 137.153 C 335.928 136.697,336.453 135.925,336.696 135.439 C 336.940 134.953,337.406 134.269,337.732 133.919 C 338.058 133.570,338.505 132.774,338.724 132.151 C 338.944 131.527,339.402 130.616,339.741 130.125 C 340.081 129.634,340.472 128.634,340.611 127.903 C 340.749 127.172,341.145 126.093,341.489 125.505 C 341.834 124.917,342.295 123.643,342.514 122.673 C 342.734 121.703,343.191 120.201,343.532 119.335 C 343.931 118.319,344.289 116.581,344.539 114.437 C 344.753 112.609,345.047 110.645,345.194 110.073 C 345.688 108.140,345.785 99.131,345.335 96.881 C 345.116 95.782,344.752 93.182,344.527 91.103 C 344.231 88.365,343.948 86.918,343.501 85.855 C 343.161 85.048,342.721 83.539,342.522 82.501 C 342.323 81.463,341.875 80.127,341.526 79.531 C 341.177 78.935,340.764 77.856,340.609 77.133 C 340.454 76.410,340.066 75.434,339.748 74.964 C 339.429 74.494,338.976 73.532,338.741 72.826 C 338.507 72.119,337.980 71.121,337.572 70.606 C 337.163 70.092,336.829 69.525,336.829 69.347 C 336.829 69.168,336.560 68.700,336.231 68.307 C 335.902 67.915,335.329 66.991,334.957 66.255 C 334.586 65.519,334.111 64.851,333.903 64.771 C 333.695 64.691,333.343 64.270,333.121 63.835 C 332.899 63.401,332.363 62.623,331.930 62.108 C 331.497 61.593,330.632 60.530,330.006 59.745 C 326.749 55.659,321.154 50.169,319.267 49.207 C 318.849 48.994,318.283 48.571,318.008 48.268 C 317.734 47.964,317.110 47.549,316.623 47.345 C 316.135 47.142,315.508 46.766,315.228 46.510 C 314.948 46.254,314.130 45.750,313.410 45.390 C 312.690 45.029,312.026 44.613,311.934 44.464 C 311.842 44.315,311.146 43.918,310.387 43.583 C 309.628 43.247,308.714 42.742,308.356 42.460 C 307.997 42.178,307.236 41.824,306.663 41.673 C 306.091 41.521,305.111 41.073,304.485 40.676 C 303.860 40.279,302.833 39.838,302.203 39.698 C 301.573 39.557,300.436 39.159,299.676 38.814 C 298.916 38.469,297.328 38.019,296.147 37.814 C 294.965 37.610,293.419 37.213,292.710 36.933 C 290.245 35.959,271.609 35.389,266.709 36.137 M283.007 47.514 C 288.548 47.848,290.443 48.116,291.935 48.775 C 292.583 49.062,294.044 49.461,295.179 49.660 C 296.490 49.891,297.575 50.250,298.148 50.644 C 298.646 50.985,299.595 51.399,300.257 51.563 C 300.920 51.728,301.873 52.189,302.376 52.589 C 302.878 52.988,303.711 53.429,304.226 53.568 C 304.741 53.706,305.360 54.037,305.600 54.303 C 305.841 54.568,306.626 55.036,307.346 55.341 C 308.066 55.647,308.911 56.133,309.226 56.422 C 309.540 56.711,310.179 57.182,310.645 57.469 C 314.045 59.562,317.116 62.416,320.025 66.187 C 320.581 66.908,321.385 67.917,321.811 68.430 C 322.238 68.943,322.844 69.788,323.159 70.310 C 323.473 70.831,323.817 71.257,323.922 71.257 C 324.028 71.257,324.435 71.854,324.828 72.584 C 325.220 73.313,325.807 74.232,326.131 74.625 C 326.456 75.017,326.721 75.484,326.721 75.661 C 326.721 75.838,327.072 76.466,327.500 77.057 C 327.928 77.648,328.444 78.603,328.647 79.179 C 328.849 79.756,329.289 80.642,329.623 81.149 C 329.958 81.656,330.418 82.789,330.645 83.666 C 330.873 84.544,331.321 85.721,331.642 86.282 C 332.002 86.912,332.389 88.308,332.653 89.926 C 332.888 91.368,333.309 93.415,333.589 94.474 C 334.311 97.209,334.145 107.388,333.327 110.601 C 333.037 111.742,332.671 113.730,332.514 115.020 C 332.330 116.530,332.012 117.792,331.620 118.566 C 331.285 119.227,330.834 120.529,330.618 121.460 C 330.403 122.391,330.001 123.468,329.727 123.853 C 329.452 124.239,329.003 125.207,328.729 126.005 C 328.454 126.803,328.023 127.688,327.771 127.973 C 327.519 128.257,327.054 128.943,326.739 129.496 C 326.128 130.566,325.944 130.806,323.110 134.228 C 322.108 135.439,320.720 137.137,320.025 138.003 C 318.359 140.078,317.390 141.110,313.359 145.103 C 307.668 150.740,301.892 156.587,300.695 157.922 C 300.069 158.619,298.734 160.071,297.727 161.149 C 296.720 162.226,295.554 163.506,295.136 163.992 C 294.718 164.479,294.006 165.288,293.555 165.792 C 293.104 166.295,292.167 167.467,291.472 168.396 C 290.777 169.326,289.810 170.590,289.324 171.205 C 286.475 174.811,285.167 176.628,284.546 177.845 C 284.267 178.392,283.869 178.904,283.661 178.984 C 283.453 179.064,283.037 179.618,282.737 180.215 C 282.437 180.813,281.983 181.530,281.727 181.810 C 281.471 182.090,281.073 182.772,280.842 183.326 C 280.610 183.880,280.105 184.693,279.719 185.133 C 279.333 185.573,278.883 186.340,278.718 186.839 C 278.388 187.840,278.103 187.920,276.804 187.377 C 276.151 187.104,275.799 186.718,275.441 185.884 C 275.176 185.265,274.795 184.663,274.594 184.546 C 274.393 184.429,273.986 183.853,273.689 183.267 C 273.392 182.680,272.809 181.812,272.393 181.338 C 271.977 180.864,271.636 180.361,271.636 180.221 C 271.636 180.080,271.347 179.697,270.993 179.370 C 270.639 179.042,270.135 178.369,269.874 177.873 C 269.613 177.377,269.208 176.814,268.976 176.621 C 268.743 176.428,268.167 175.696,267.696 174.995 C 267.225 174.294,266.469 173.250,266.016 172.675 C 265.563 172.101,264.756 171.049,264.221 170.338 C 263.687 169.628,263.172 169.046,263.076 169.046 C 262.980 169.046,262.699 168.703,262.451 168.284 C 262.037 167.584,261.422 166.806,259.188 164.161 C 258.121 162.898,256.572 161.133,255.464 159.921 C 254.978 159.388,254.125 158.431,253.569 157.792 C 253.013 157.154,252.265 156.326,251.906 155.953 C 251.547 155.580,250.131 154.024,248.759 152.495 C 247.387 150.967,245.861 149.316,245.369 148.828 C 244.286 147.756,241.300 144.530,239.971 142.995 C 239.440 142.383,238.588 141.399,238.076 140.808 C 237.564 140.217,236.860 139.421,236.513 139.039 C 236.166 138.657,235.567 137.890,235.182 137.334 C 234.798 136.778,233.975 135.641,233.354 134.807 C 232.733 133.973,231.954 132.892,231.624 132.403 C 231.293 131.915,230.828 131.353,230.590 131.156 C 230.351 130.958,229.868 130.220,229.517 129.517 C 229.165 128.813,228.672 128.010,228.423 127.732 C 228.173 127.454,227.801 126.655,227.596 125.956 C 227.392 125.257,226.944 124.272,226.601 123.768 C 226.259 123.263,225.831 122.129,225.650 121.248 C 225.470 120.367,225.008 118.964,224.624 118.130 C 224.216 117.245,223.859 115.931,223.766 114.972 C 223.677 114.068,223.316 111.908,222.963 110.171 C 222.223 106.533,221.966 96.869,222.571 95.429 C 222.737 95.035,223.159 93.045,223.509 91.007 C 223.923 88.599,224.358 86.896,224.752 86.142 C 225.086 85.503,225.520 84.366,225.717 83.615 C 225.915 82.864,226.370 81.819,226.728 81.293 C 227.087 80.767,227.456 79.971,227.548 79.524 C 227.641 79.077,228.054 78.284,228.465 77.761 C 228.877 77.238,229.336 76.442,229.486 75.992 C 229.636 75.542,230.016 74.889,230.329 74.542 C 230.642 74.195,231.154 73.399,231.466 72.773 C 231.778 72.148,232.331 71.266,232.694 70.813 C 233.057 70.361,233.809 69.428,234.365 68.740 C 234.921 68.053,235.831 66.895,236.387 66.167 C 237.995 64.062,241.831 60.152,243.209 59.212 C 243.904 58.739,244.870 58.079,245.357 57.747 C 245.843 57.415,246.599 56.849,247.036 56.491 C 247.473 56.133,248.268 55.657,248.803 55.434 C 249.337 55.210,250.085 54.767,250.464 54.448 C 250.843 54.129,251.712 53.682,252.395 53.455 C 253.077 53.228,253.834 52.824,254.076 52.557 C 254.318 52.290,255.154 51.885,255.934 51.658 C 256.715 51.432,257.824 50.970,258.400 50.632 C 258.976 50.295,260.342 49.850,261.436 49.645 C 262.529 49.439,264.083 48.978,264.889 48.621 C 266.174 48.051,266.887 47.942,270.701 47.732 C 273.091 47.600,275.275 47.454,275.553 47.407 C 276.614 47.226,278.737 47.257,283.007 47.514 M275.300 66.107 C 270.815 66.451,268.924 66.757,267.634 67.347 C 266.878 67.693,265.591 68.150,264.774 68.361 C 263.958 68.573,262.758 69.084,262.107 69.496 C 261.457 69.909,260.785 70.246,260.614 70.246 C 260.444 70.246,259.983 70.515,259.590 70.844 C 259.197 71.172,258.364 71.696,257.738 72.008 C 257.113 72.320,256.317 72.847,255.970 73.178 C 255.622 73.509,254.784 74.264,254.107 74.856 C 252.846 75.958,252.693 76.112,251.169 77.813 C 249.928 79.198,249.150 80.220,248.198 81.715 C 245.712 85.619,244.662 87.520,244.348 88.686 C 244.183 89.298,243.774 90.324,243.439 90.965 C 241.546 94.584,241.539 109.746,243.428 113.009 C 243.771 113.602,244.184 114.599,244.344 115.224 C 244.505 115.850,244.937 116.816,245.305 117.372 C 245.672 117.928,246.221 118.909,246.524 119.552 C 246.826 120.195,247.201 120.800,247.356 120.896 C 247.511 120.992,247.879 121.546,248.173 122.127 C 248.673 123.113,249.254 123.883,251.165 126.090 C 253.170 128.405,257.015 131.901,257.557 131.902 C 257.726 131.902,258.534 132.357,259.352 132.913 C 260.170 133.468,260.933 133.923,261.049 133.923 C 261.164 133.923,261.788 134.259,262.436 134.670 C 263.083 135.080,264.233 135.545,264.990 135.702 C 265.748 135.859,266.899 136.262,267.549 136.596 C 270.731 138.233,285.391 138.322,288.525 136.723 C 289.051 136.455,290.213 136.046,291.107 135.814 C 292.002 135.582,293.362 135.005,294.129 134.532 C 294.897 134.058,295.656 133.670,295.816 133.670 C 295.977 133.670,296.429 133.401,296.822 133.072 C 297.215 132.744,298.129 132.175,298.854 131.809 C 299.578 131.443,300.289 130.924,300.433 130.655 C 300.577 130.387,300.893 130.102,301.137 130.023 C 301.755 129.822,305.307 126.179,306.131 124.900 C 306.381 124.512,306.740 124.103,306.928 123.991 C 307.117 123.879,307.569 123.197,307.933 122.475 C 308.297 121.753,308.921 120.789,309.320 120.332 C 309.718 119.876,310.045 119.364,310.045 119.195 C 310.046 119.026,310.389 118.377,310.809 117.751 C 311.228 117.126,311.753 115.989,311.977 115.224 C 312.200 114.460,312.640 113.380,312.956 112.824 C 314.837 109.510,314.741 94.472,312.814 90.714 C 312.422 89.949,311.979 88.869,311.830 88.313 C 311.681 87.757,311.218 86.802,310.802 86.191 C 310.385 85.579,310.044 84.934,310.044 84.757 C 310.044 84.580,309.732 84.067,309.349 83.617 C 308.967 83.166,308.370 82.314,308.023 81.724 C 306.182 78.595,301.140 73.398,298.767 72.185 C 298.332 71.963,297.650 71.508,297.251 71.175 C 296.852 70.841,296.241 70.482,295.894 70.376 C 295.546 70.271,294.637 69.805,293.872 69.341 C 293.108 68.877,291.914 68.378,291.219 68.231 C 290.524 68.084,289.375 67.676,288.665 67.325 C 286.929 66.464,279.484 65.786,275.300 66.107 M281.870 77.971 C 286.962 78.544,286.963 78.544,287.782 79.233 C 288.192 79.579,288.906 79.986,289.368 80.139 C 289.830 80.291,290.626 80.742,291.137 81.140 C 291.648 81.538,292.387 82.006,292.780 82.180 C 293.397 82.454,294.398 83.402,296.987 86.166 C 297.312 86.513,297.875 87.318,298.238 87.954 C 298.600 88.591,299.068 89.254,299.278 89.428 C 299.487 89.601,299.796 90.161,299.963 90.671 C 300.131 91.181,300.551 92.025,300.895 92.547 C 303.017 95.761,303.205 107.176,301.198 110.929 C 300.938 111.415,300.438 112.403,300.088 113.124 C 299.738 113.846,299.052 114.983,298.565 115.651 C 297.024 117.764,296.035 119.022,295.563 119.467 C 295.311 119.705,294.743 120.254,294.300 120.688 C 293.856 121.122,293.095 121.678,292.609 121.924 C 292.123 122.170,291.415 122.629,291.036 122.945 C 290.657 123.261,289.918 123.660,289.394 123.832 C 288.869 124.004,288.089 124.411,287.661 124.736 C 286.789 125.398,286.745 125.407,281.996 125.986 C 277.935 126.481,278.306 126.486,273.441 125.875 C 270.418 125.495,269.403 125.270,268.845 124.857 C 268.450 124.566,267.511 124.054,266.756 123.721 C 266.001 123.387,265.305 122.986,265.208 122.829 C 265.111 122.673,264.556 122.308,263.975 122.019 C 263.394 121.729,262.552 121.134,262.104 120.696 C 261.656 120.257,261.087 119.702,260.840 119.461 C 259.588 118.239,258.752 117.224,258.364 116.455 C 258.127 115.987,257.653 115.303,257.311 114.937 C 256.968 114.570,256.552 113.888,256.387 113.421 C 256.221 112.953,255.772 112.044,255.389 111.399 C 253.244 107.795,253.109 96.483,255.167 92.914 C 255.400 92.510,255.932 91.575,256.349 90.836 C 258.147 87.650,258.847 86.677,260.825 84.621 C 261.976 83.424,263.182 82.362,263.504 82.261 C 263.825 82.160,264.466 81.746,264.928 81.341 C 265.390 80.936,266.245 80.435,266.830 80.229 C 267.414 80.023,268.226 79.573,268.634 79.230 C 269.426 78.563,269.465 78.555,273.910 78.005 C 277.848 77.519,277.852 77.519,281.870 77.971 M176.906 103.286 C 177.072 103.736,176.959 104.026,176.366 104.675 C 174.267 106.969,173.594 107.763,173.594 107.947 C 173.594 108.057,173.217 108.574,172.756 109.096 C 172.295 109.617,171.660 110.471,171.345 110.992 C 171.031 111.513,170.672 111.939,170.548 111.939 C 170.424 111.939,170.134 112.309,169.903 112.761 C 169.672 113.212,169.151 113.980,168.745 114.466 C 167.229 116.284,166.254 117.655,165.780 118.636 C 165.512 119.191,165.000 119.914,164.642 120.241 C 164.285 120.569,163.991 120.967,163.990 121.126 C 163.989 121.285,163.597 121.907,163.119 122.507 C 162.641 123.108,162.122 123.990,161.964 124.468 C 161.807 124.945,161.455 125.455,161.183 125.600 C 160.911 125.746,160.411 126.494,160.071 127.262 C 159.731 128.031,159.167 129.000,158.817 129.415 C 158.467 129.831,158.181 130.316,158.181 130.493 C 158.181 130.670,157.862 131.258,157.472 131.800 C 157.082 132.342,156.577 133.253,156.350 133.825 C 156.124 134.397,155.647 135.293,155.291 135.818 C 154.935 136.343,154.527 137.206,154.384 137.736 C 154.241 138.267,153.855 139.021,153.527 139.411 C 153.198 139.802,152.745 140.740,152.521 141.497 C 152.296 142.253,151.837 143.274,151.501 143.767 C 151.164 144.259,150.715 145.338,150.503 146.164 C 150.291 146.990,149.892 147.971,149.617 148.343 C 149.342 148.715,148.943 149.688,148.730 150.505 C 148.289 152.203,147.637 152.874,146.430 152.874 C 145.013 152.874,141.687 152.086,140.432 151.452 C 139.774 151.119,138.425 150.677,137.436 150.469 C 136.446 150.260,135.315 149.861,134.922 149.581 C 134.528 149.301,133.432 148.885,132.485 148.656 C 131.539 148.427,130.310 147.928,129.754 147.546 C 129.198 147.164,128.345 146.774,127.858 146.679 C 127.372 146.584,126.458 146.180,125.826 145.781 C 125.195 145.382,124.175 144.878,123.559 144.661 C 122.944 144.444,122.206 144.046,121.920 143.778 C 121.635 143.509,120.919 143.119,120.330 142.912 C 119.741 142.704,118.891 142.256,118.442 141.917 C 117.993 141.578,117.171 141.113,116.617 140.885 C 116.063 140.656,115.381 140.259,115.101 140.004 C 114.822 139.748,114.130 139.307,113.565 139.024 C 113.000 138.740,112.381 138.320,112.191 138.091 C 112.001 137.862,111.326 137.402,110.692 137.070 C 109.344 136.365,107.644 134.830,107.644 134.319 C 107.644 133.919,111.540 129.880,111.925 129.880 C 112.061 129.880,112.409 129.624,112.698 129.311 C 113.211 128.757,114.551 127.755,117.130 125.998 C 117.831 125.521,118.556 124.948,118.741 124.726 C 118.925 124.503,119.213 124.321,119.379 124.321 C 119.545 124.321,120.150 123.920,120.722 123.430 C 121.295 122.940,122.149 122.378,122.620 122.181 C 123.091 121.984,123.637 121.631,123.832 121.395 C 124.028 121.160,124.701 120.747,125.328 120.479 C 125.955 120.211,126.696 119.779,126.974 119.520 C 127.252 119.261,128.048 118.806,128.743 118.509 C 129.438 118.212,130.234 117.759,130.512 117.502 C 130.790 117.244,131.529 116.837,132.154 116.596 C 132.780 116.356,133.575 115.906,133.923 115.596 C 134.270 115.287,135.138 114.844,135.852 114.613 C 136.565 114.382,137.346 113.975,137.587 113.709 C 137.827 113.442,138.744 112.985,139.624 112.692 C 140.504 112.399,141.491 111.950,141.818 111.693 C 142.144 111.436,143.089 111.030,143.916 110.792 C 144.743 110.554,145.875 110.097,146.431 109.777 C 146.987 109.456,148.194 109.021,149.113 108.809 C 150.033 108.598,151.184 108.189,151.671 107.902 C 152.159 107.614,153.449 107.208,154.538 107.000 C 155.628 106.792,157.149 106.332,157.918 105.978 C 158.688 105.625,160.227 105.215,161.339 105.068 C 162.451 104.921,164.214 104.536,165.256 104.213 C 167.662 103.467,168.361 103.347,172.557 102.965 C 176.722 102.585,176.645 102.579,176.906 103.286 M195.143 106.311 C 195.869 107.107,196.917 108.235,197.473 108.818 C 198.029 109.401,198.939 110.405,199.495 111.049 C 200.051 111.693,200.782 112.502,201.121 112.847 C 201.460 113.192,201.914 113.741,202.132 114.067 C 202.349 114.392,203.006 115.269,203.591 116.015 C 204.177 116.762,205.030 117.866,205.487 118.470 C 205.943 119.074,206.613 119.871,206.974 120.242 C 207.336 120.613,207.815 121.270,208.039 121.703 C 208.263 122.137,208.616 122.556,208.824 122.636 C 209.032 122.716,209.487 123.342,209.835 124.028 C 210.182 124.714,210.624 125.433,210.816 125.625 C 211.008 125.817,211.463 126.446,211.826 127.022 C 212.190 127.598,212.608 128.143,212.756 128.235 C 212.904 128.326,213.354 129.053,213.756 129.850 C 214.159 130.648,214.656 131.439,214.861 131.609 C 215.065 131.779,215.379 132.284,215.558 132.731 C 215.737 133.178,216.207 133.962,216.603 134.473 C 216.999 134.984,217.449 135.780,217.603 136.242 C 217.757 136.704,218.137 137.366,218.447 137.713 C 218.758 138.061,219.218 138.913,219.471 139.608 C 219.724 140.303,220.191 141.190,220.509 141.579 C 220.827 141.967,221.255 142.853,221.461 143.547 C 221.667 144.240,222.061 145.094,222.336 145.444 C 222.612 145.794,223.027 146.671,223.260 147.393 C 223.493 148.114,223.960 149.189,224.298 149.781 C 224.819 150.692,225.303 152.141,226.061 155.063 C 226.262 155.833,225.654 156.088,222.574 156.522 C 221.137 156.725,219.482 157.061,218.894 157.270 C 217.519 157.757,214.173 158.105,207.707 158.433 C 204.858 158.577,200.708 158.876,198.484 159.099 C 194.185 159.528,187.737 159.468,182.817 158.953 C 181.428 158.808,177.516 158.511,174.126 158.295 C 167.191 157.852,161.195 156.814,159.838 155.822 C 159.375 155.484,159.376 155.447,159.893 154.364 C 160.184 153.753,160.499 152.798,160.592 152.243 C 160.686 151.687,161.082 150.653,161.472 149.946 C 161.863 149.238,162.306 148.202,162.456 147.643 C 162.607 147.084,163.027 146.188,163.391 145.652 C 163.755 145.116,164.220 144.105,164.425 143.406 C 164.629 142.707,165.056 141.851,165.374 141.503 C 165.692 141.156,166.143 140.284,166.376 139.565 C 166.609 138.846,166.982 138.107,167.206 137.922 C 167.429 137.738,167.839 137.075,168.116 136.450 C 168.393 135.824,169.000 134.760,169.465 134.084 C 169.929 133.408,170.310 132.715,170.310 132.544 C 170.310 132.373,170.549 132.016,170.843 131.751 C 171.136 131.486,171.695 130.638,172.085 129.865 C 172.476 129.092,172.983 128.304,173.213 128.113 C 173.443 127.922,173.842 127.353,174.100 126.848 C 174.357 126.343,174.756 125.774,174.985 125.583 C 175.215 125.393,175.677 124.696,176.012 124.035 C 176.347 123.374,176.775 122.742,176.963 122.629 C 177.151 122.517,177.515 122.085,177.771 121.668 C 178.027 121.251,178.505 120.625,178.833 120.278 C 179.857 119.192,181.428 117.224,181.428 117.026 C 181.428 116.689,185.625 111.737,188.377 108.827 C 188.932 108.239,189.981 107.107,190.707 106.311 C 191.840 105.069,192.153 104.864,192.925 104.864 C 193.696 104.864,194.010 105.069,195.143 106.311 M100.633 144.181 C 100.945 144.542,101.627 145.056,102.148 145.324 C 102.669 145.591,103.095 145.927,103.095 146.071 C 103.095 146.215,103.704 146.611,104.447 146.951 C 105.190 147.292,106.008 147.801,106.263 148.083 C 106.519 148.366,107.190 148.804,107.754 149.057 C 108.319 149.309,108.994 149.756,109.254 150.049 C 109.514 150.341,110.139 150.715,110.643 150.879 C 111.148 151.044,111.920 151.491,112.360 151.873 C 112.800 152.255,113.596 152.711,114.129 152.886 C 114.662 153.061,115.439 153.453,115.856 153.758 C 116.273 154.062,117.263 154.568,118.057 154.882 C 118.851 155.195,119.627 155.605,119.782 155.792 C 119.937 155.979,120.652 156.320,121.371 156.551 C 122.090 156.782,123.092 157.236,123.597 157.560 C 124.103 157.885,125.155 158.336,125.935 158.562 C 126.716 158.789,127.841 159.247,128.436 159.579 C 129.031 159.912,130.139 160.313,130.899 160.471 C 131.659 160.629,132.735 161.015,133.291 161.329 C 133.847 161.644,135.141 162.087,136.166 162.315 C 137.191 162.543,138.670 163.009,139.451 163.350 C 140.232 163.691,141.361 164.095,141.959 164.247 C 142.556 164.400,143.108 164.687,143.184 164.886 C 143.413 165.481,142.532 170.042,141.980 171.123 C 141.699 171.676,141.261 173.339,141.009 174.819 C 140.756 176.300,140.315 178.099,140.027 178.818 C 139.740 179.537,139.323 181.470,139.101 183.114 C 138.880 184.757,138.467 186.784,138.185 187.617 C 137.902 188.450,137.558 190.155,137.421 191.407 C 137.096 194.357,136.619 197.709,135.966 201.642 C 135.611 203.783,135.337 207.272,135.118 212.470 C 134.821 219.525,134.756 220.167,134.311 220.492 C 133.646 220.978,67.497 221.028,67.012 220.543 C 66.370 219.901,66.816 212.283,67.697 208.832 C 67.980 207.727,68.393 205.308,68.615 203.456 C 68.862 201.399,69.257 199.459,69.630 198.466 C 69.967 197.573,70.366 196.018,70.517 195.010 C 70.669 194.002,71.077 192.552,71.424 191.788 C 71.771 191.023,72.219 189.550,72.420 188.514 C 72.620 187.478,73.021 186.230,73.309 185.741 C 73.597 185.252,74.045 184.025,74.304 183.013 C 74.563 182.001,75.055 180.690,75.397 180.100 C 75.739 179.510,76.187 178.378,76.391 177.585 C 76.595 176.792,77.004 175.836,77.299 175.461 C 77.594 175.085,78.007 174.189,78.216 173.469 C 78.426 172.749,78.881 171.775,79.228 171.305 C 79.575 170.834,79.971 170.035,80.107 169.529 C 80.243 169.023,80.690 168.188,81.098 167.673 C 81.507 167.158,81.978 166.319,82.145 165.807 C 82.311 165.295,82.772 164.503,83.169 164.047 C 83.566 163.590,83.891 163.062,83.891 162.872 C 83.891 162.682,84.346 161.922,84.902 161.182 C 85.458 160.442,85.913 159.686,85.913 159.503 C 85.913 159.319,86.185 158.897,86.517 158.565 C 86.849 158.233,87.482 157.328,87.925 156.555 C 88.367 155.781,88.810 155.148,88.909 155.148 C 89.008 155.148,89.302 154.779,89.564 154.327 C 89.825 153.876,90.390 153.084,90.818 152.569 C 91.675 151.540,92.615 150.320,94.479 147.821 C 95.153 146.917,96.045 145.837,96.461 145.420 C 96.877 145.003,97.351 144.406,97.512 144.093 C 97.961 143.228,99.856 143.281,100.633 144.181 M245.087 165.825 C 247.157 168.049,248.248 169.249,249.147 170.295 C 249.634 170.860,250.316 171.635,250.664 172.016 C 251.012 172.398,251.629 173.165,252.036 173.721 C 252.443 174.277,253.153 175.186,253.614 175.742 C 254.075 176.298,254.728 177.094,255.065 177.511 C 255.401 177.928,256.112 178.808,256.645 179.466 C 258.770 182.096,260.304 184.198,261.460 186.068 C 261.706 186.467,262.277 187.245,262.729 187.798 C 263.181 188.351,263.550 188.959,263.550 189.150 C 263.550 189.340,263.876 189.870,264.275 190.326 C 264.673 190.783,265.297 191.745,265.660 192.465 C 266.023 193.185,266.445 193.851,266.599 193.946 C 266.752 194.040,267.103 194.645,267.378 195.290 C 267.654 195.935,268.096 196.693,268.360 196.975 C 268.624 197.257,269.018 197.994,269.237 198.614 C 269.455 199.233,269.902 200.026,270.228 200.375 C 270.555 200.725,271.004 201.650,271.227 202.431 C 271.449 203.212,271.815 204.003,272.039 204.189 C 272.264 204.376,272.712 205.127,273.036 205.858 C 273.683 207.322,274.352 207.843,276.717 208.728 L 278.177 209.274 279.842 208.720 C 281.924 208.027,282.821 207.284,283.256 205.891 C 283.443 205.291,283.797 204.460,284.042 204.042 C 284.287 203.625,284.728 202.384,285.023 201.284 C 285.317 200.185,285.768 198.991,286.023 198.632 C 286.279 198.273,286.672 197.358,286.897 196.600 C 287.122 195.841,287.585 194.818,287.926 194.325 C 288.267 193.833,288.725 192.920,288.944 192.297 C 289.164 191.673,289.605 190.877,289.925 190.528 C 290.245 190.178,290.657 189.495,290.841 189.008 C 291.024 188.522,291.407 187.864,291.692 187.546 C 291.976 187.229,292.498 186.476,292.851 185.874 C 294.054 183.824,295.085 182.313,295.712 181.680 C 296.056 181.333,296.484 180.764,296.663 180.417 C 296.842 180.069,297.282 179.486,297.642 179.119 C 298.001 178.753,298.806 177.798,299.431 176.996 C 300.057 176.194,301.052 174.983,301.642 174.305 C 302.233 173.627,302.716 172.976,302.716 172.859 C 302.716 172.530,304.114 172.027,304.763 172.121 C 305.225 172.188,305.427 172.494,305.767 173.642 C 306.001 174.433,306.423 175.372,306.704 175.730 C 306.986 176.087,307.354 176.975,307.523 177.703 C 307.692 178.432,308.144 179.596,308.528 180.291 C 308.912 180.985,309.366 182.179,309.537 182.944 C 309.708 183.708,310.119 184.808,310.451 185.388 C 310.783 185.968,311.225 187.276,311.435 188.294 C 311.644 189.312,312.096 190.714,312.438 191.409 C 312.781 192.104,313.190 193.525,313.348 194.567 C 313.505 195.610,313.951 197.429,314.340 198.610 C 314.754 199.868,315.167 201.910,315.339 203.538 C 315.500 205.066,315.920 207.568,316.274 209.097 C 317.104 212.691,317.441 220.012,316.800 220.544 C 316.300 220.959,252.425 220.996,251.652 220.582 C 250.986 220.226,250.964 220.040,250.662 212.255 C 250.380 204.990,250.177 202.840,249.398 198.863 C 249.139 197.543,248.795 194.984,248.633 193.178 C 248.452 191.163,248.102 189.144,247.728 187.956 C 247.392 186.892,246.941 184.674,246.726 183.029 C 246.510 181.384,246.113 179.536,245.842 178.924 C 245.571 178.311,245.120 176.508,244.840 174.918 C 244.560 173.328,244.109 171.593,243.838 171.062 C 242.982 169.385,242.381 165.013,242.949 164.598 C 243.509 164.189,243.629 164.258,245.087 165.825 M230.840 168.406 C 231.042 168.888,231.208 169.485,231.209 169.733 C 231.210 169.981,231.498 170.798,231.848 171.550 C 232.198 172.301,232.657 173.950,232.868 175.214 C 233.079 176.477,233.525 178.209,233.859 179.061 C 234.193 179.913,234.651 181.950,234.877 183.587 C 235.104 185.223,235.519 187.141,235.800 187.849 C 236.119 188.652,236.493 190.739,236.796 193.409 C 237.063 195.760,237.441 198.261,237.637 198.968 C 238.839 203.312,239.547 220.052,238.551 220.585 C 237.777 220.999,147.455 220.945,147.130 220.531 C 146.251 219.408,147.047 203.457,148.212 198.850 C 148.407 198.078,148.785 195.520,149.053 193.164 C 149.372 190.359,149.726 188.410,150.082 187.515 C 150.380 186.763,150.796 184.840,151.006 183.241 C 151.235 181.492,151.634 179.748,152.005 178.865 C 152.345 178.058,152.750 176.513,152.905 175.433 C 153.060 174.352,153.515 172.710,153.915 171.783 C 154.316 170.857,154.643 169.924,154.643 169.711 C 154.643 169.125,155.174 168.080,155.544 167.938 C 156.114 167.719,162.869 168.501,164.925 169.024 C 167.310 169.630,170.767 169.975,176.500 170.177 C 178.863 170.261,183.025 170.504,185.750 170.717 C 190.987 171.127,191.076 171.126,202.527 170.485 C 213.828 169.852,216.753 169.595,219.078 169.031 C 220.259 168.745,222.813 168.342,224.753 168.136 C 226.693 167.930,228.332 167.709,228.395 167.646 C 228.939 167.102,230.498 167.587,230.840 168.406 M133.887 233.001 C 134.906 233.356,134.862 233.078,135.180 241.314 C 135.480 249.111,135.730 251.839,136.431 254.959 C 136.696 256.140,137.042 258.624,137.198 260.478 C 137.378 262.604,137.707 264.564,138.088 265.784 C 138.420 266.849,138.873 269.051,139.094 270.678 C 139.315 272.305,139.766 274.352,140.095 275.226 C 140.423 276.101,140.829 277.720,140.997 278.825 C 141.164 279.930,141.624 281.710,142.018 282.780 C 143.809 287.637,143.232 289.215,139.423 289.875 C 138.552 290.026,137.301 290.420,136.642 290.750 C 135.983 291.081,134.639 291.521,133.654 291.728 C 132.669 291.935,131.389 292.380,130.808 292.717 C 130.228 293.053,129.078 293.503,128.251 293.716 C 127.425 293.929,126.448 294.326,126.080 294.598 C 125.711 294.870,124.799 295.274,124.053 295.496 C 123.306 295.718,122.294 296.164,121.803 296.488 C 121.311 296.812,120.326 297.271,119.613 297.507 C 118.900 297.743,118.126 298.146,117.894 298.402 C 117.663 298.658,116.809 299.110,115.998 299.406 C 115.186 299.701,114.375 300.121,114.195 300.338 C 114.016 300.554,113.178 301.068,112.335 301.478 C 110.433 302.405,108.596 303.476,107.983 304.017 C 107.727 304.243,106.924 304.725,106.200 305.088 C 105.475 305.451,104.767 305.964,104.626 306.227 C 104.485 306.491,104.044 306.820,103.646 306.959 C 103.247 307.097,102.520 307.563,102.030 307.994 C 101.101 308.809,99.213 309.776,98.532 309.786 C 98.159 309.791,96.459 307.917,94.504 305.344 C 94.018 304.704,93.193 303.763,92.672 303.253 C 92.151 302.743,91.725 302.197,91.725 302.040 C 91.725 301.882,91.320 301.269,90.825 300.676 C 90.330 300.084,89.746 299.249,89.527 298.821 C 89.308 298.392,88.973 297.950,88.783 297.839 C 88.592 297.727,88.218 297.208,87.951 296.685 C 87.684 296.162,87.278 295.578,87.049 295.387 C 86.819 295.197,86.344 294.466,85.992 293.762 C 85.640 293.058,85.142 292.254,84.886 291.974 C 84.630 291.694,84.249 291.054,84.039 290.551 C 83.829 290.049,83.366 289.291,83.010 288.868 C 82.654 288.445,82.233 287.720,82.076 287.258 C 81.918 286.796,81.532 286.107,81.217 285.727 C 80.903 285.347,80.401 284.381,80.102 283.579 C 79.804 282.778,79.354 281.895,79.103 281.617 C 78.852 281.339,78.506 280.657,78.333 280.101 C 78.161 279.545,77.702 278.522,77.313 277.827 C 76.924 277.132,76.439 275.916,76.234 275.126 C 76.029 274.335,75.623 273.353,75.331 272.943 C 75.039 272.533,74.621 271.418,74.402 270.464 C 74.182 269.511,73.735 268.271,73.409 267.710 C 73.082 267.149,72.683 265.955,72.521 265.057 C 72.359 264.159,71.904 262.685,71.510 261.781 C 71.115 260.878,70.671 259.257,70.522 258.178 C 70.373 257.100,69.977 255.565,69.642 254.767 C 69.229 253.782,68.900 252.182,68.617 249.779 C 68.388 247.833,67.982 245.428,67.715 244.434 C 66.767 240.907,66.387 233.838,67.106 233.120 C 67.607 232.618,132.458 232.503,133.887 233.001 M238.812 233.253 C 239.297 233.737,239.329 233.971,239.187 235.969 C 239.102 237.172,238.917 240.771,238.776 243.967 C 238.514 249.948,238.340 251.516,237.530 255.212 C 237.271 256.393,236.985 258.269,236.894 259.381 C 236.664 262.201,236.318 264.181,235.747 265.951 C 235.478 266.785,235.078 268.764,234.859 270.350 C 234.628 272.021,234.246 273.653,233.951 274.232 C 233.671 274.781,233.218 276.540,232.944 278.142 C 232.670 279.743,232.226 281.483,231.958 282.009 C 231.690 282.534,231.349 283.509,231.200 284.175 C 230.715 286.338,229.841 286.468,224.780 285.131 C 223.520 284.798,220.670 284.353,218.446 284.140 C 216.222 283.928,213.484 283.586,212.361 283.381 C 204.852 282.005,180.072 281.945,171.952 283.283 C 170.284 283.557,167.271 283.944,165.256 284.142 C 163.241 284.339,160.512 284.788,159.191 285.139 C 155.450 286.133,155.176 286.066,154.657 284.018 C 154.498 283.392,154.098 282.255,153.768 281.491 C 153.439 280.726,153.035 279.191,152.870 278.080 C 152.706 276.968,152.295 275.400,151.957 274.595 C 151.619 273.790,151.172 271.915,150.963 270.428 C 150.755 268.942,150.312 266.865,149.980 265.813 C 149.626 264.692,149.255 262.598,149.084 260.756 C 148.924 259.027,148.576 256.646,148.311 255.464 C 147.519 251.932,147.327 250.230,147.064 244.438 C 146.925 241.399,146.739 237.764,146.650 236.358 C 146.498 233.970,146.522 233.768,147.028 233.263 L 147.568 232.723 192.925 232.723 L 238.282 232.723 238.812 233.253 M316.816 233.026 C 317.485 233.694,317.058 240.918,316.128 244.668 C 315.845 245.811,315.447 248.168,315.243 249.905 C 315.004 251.947,314.655 253.600,314.256 254.580 C 313.917 255.414,313.519 257.007,313.371 258.121 C 313.224 259.234,312.810 260.787,312.451 261.571 C 312.092 262.356,311.638 263.834,311.442 264.856 C 311.246 265.879,310.808 267.225,310.467 267.849 C 310.127 268.473,309.708 269.608,309.537 270.373 C 309.366 271.137,308.910 272.331,308.525 273.026 C 308.139 273.721,307.743 274.687,307.646 275.174 C 307.548 275.660,307.094 276.740,306.637 277.574 C 306.180 278.408,305.729 279.455,305.634 279.900 C 305.539 280.345,305.233 280.999,304.954 281.354 C 304.675 281.708,304.178 282.684,303.850 283.522 C 303.521 284.359,302.962 285.391,302.606 285.814 C 302.250 286.237,301.958 286.732,301.958 286.915 C 301.958 287.097,301.561 287.824,301.075 288.530 C 300.589 289.237,300.008 290.273,299.784 290.833 C 299.560 291.393,299.277 291.851,299.156 291.851 C 299.034 291.851,298.633 292.448,298.265 293.178 C 297.897 293.907,297.298 294.857,296.934 295.288 C 296.571 295.719,296.075 296.401,295.834 296.804 C 295.592 297.207,294.884 298.219,294.259 299.052 C 293.634 299.886,292.808 301.023,292.424 301.579 C 292.039 302.135,291.440 302.897,291.093 303.273 C 290.745 303.649,290.030 304.502,289.503 305.168 C 286.587 308.854,285.707 309.792,285.163 309.792 C 284.505 309.792,282.484 308.762,281.376 307.863 C 279.016 305.948,278.296 305.435,277.506 305.105 C 277.025 304.904,276.243 304.398,275.768 303.981 C 275.292 303.563,274.780 303.222,274.628 303.222 C 274.477 303.222,273.672 302.767,272.839 302.211 C 272.007 301.655,271.184 301.200,271.010 301.200 C 270.837 301.200,270.257 300.852,269.722 300.427 C 269.186 300.001,268.255 299.521,267.653 299.360 C 267.051 299.199,266.354 298.877,266.104 298.645 C 265.524 298.104,264.186 297.410,263.724 297.410 C 263.528 297.410,262.926 297.107,262.385 296.737 C 261.845 296.367,260.753 295.859,259.959 295.610 C 259.165 295.360,258.085 294.879,257.559 294.541 C 257.032 294.203,255.976 293.787,255.212 293.618 C 254.447 293.449,253.347 293.039,252.767 292.708 C 252.187 292.376,250.889 291.931,249.882 291.720 C 248.876 291.508,247.694 291.113,247.256 290.843 C 246.818 290.572,245.765 290.188,244.917 289.991 C 244.069 289.793,243.252 289.555,243.102 289.462 C 242.434 289.049,242.981 284.187,243.898 282.390 C 244.182 281.833,244.616 280.181,244.863 278.718 C 245.109 277.255,245.558 275.435,245.859 274.674 C 246.160 273.912,246.566 271.998,246.762 270.419 C 246.958 268.840,247.398 266.663,247.739 265.582 C 248.133 264.335,248.462 262.426,248.638 260.361 C 248.791 258.571,249.132 256.140,249.396 254.959 C 250.092 251.849,250.368 248.846,250.666 241.174 C 250.968 233.378,250.964 233.403,251.732 233.034 C 252.595 232.618,316.400 232.610,316.816 233.026 M201.011 294.127 C 207.302 294.315,209.242 294.458,210.865 294.851 C 211.977 295.121,214.195 295.471,215.793 295.630 C 224.013 296.449,224.438 296.541,225.619 297.760 C 226.410 298.576,226.433 298.650,226.062 299.216 C 225.846 299.544,225.511 300.496,225.317 301.330 C 225.122 302.164,224.618 303.471,224.197 304.234 C 223.776 304.998,223.354 305.963,223.260 306.380 C 223.166 306.797,222.815 307.538,222.480 308.026 C 222.145 308.515,221.639 309.590,221.355 310.415 C 221.071 311.240,220.617 312.151,220.346 312.440 C 220.075 312.728,219.676 313.465,219.460 314.077 C 219.244 314.689,218.796 315.546,218.464 315.981 C 218.132 316.416,217.674 317.219,217.446 317.764 C 217.218 318.309,216.821 318.984,216.563 319.264 C 216.305 319.544,215.913 320.212,215.692 320.749 C 215.470 321.286,214.948 322.114,214.530 322.590 C 214.113 323.065,213.771 323.595,213.771 323.767 C 213.771 323.939,213.447 324.475,213.050 324.958 C 212.653 325.442,212.129 326.235,211.885 326.721 C 211.641 327.208,211.225 327.833,210.962 328.111 C 210.217 328.898,208.325 331.558,207.853 332.483 C 207.619 332.942,207.259 333.382,207.053 333.461 C 206.846 333.540,206.498 333.953,206.278 334.378 C 206.058 334.803,205.522 335.513,205.087 335.956 C 204.652 336.399,203.784 337.418,203.159 338.221 C 200.666 341.420,199.443 342.882,197.347 345.163 C 196.860 345.692,195.894 346.758,195.199 347.530 C 193.400 349.531,192.450 349.531,190.651 347.531 C 189.956 346.758,188.932 345.633,188.377 345.031 C 186.418 342.909,185.552 341.874,182.691 338.234 C 182.066 337.438,181.156 336.349,180.670 335.813 C 179.294 334.298,177.923 332.466,176.136 329.754 C 175.724 329.128,175.167 328.389,174.898 328.111 C 174.629 327.833,174.213 327.208,173.973 326.721 C 173.733 326.235,173.271 325.553,172.947 325.205 C 172.623 324.858,172.191 324.173,171.986 323.684 C 171.782 323.195,171.374 322.577,171.079 322.310 C 170.785 322.044,170.323 321.326,170.053 320.715 C 169.783 320.105,169.285 319.276,168.946 318.874 C 168.608 318.471,168.258 317.810,168.169 317.404 C 168.080 316.998,167.788 316.469,167.521 316.227 C 167.254 315.985,166.800 315.159,166.513 314.391 C 166.226 313.624,165.714 312.667,165.377 312.266 C 165.039 311.865,164.603 310.998,164.408 310.341 C 164.213 309.683,163.755 308.706,163.391 308.170 C 163.027 307.634,162.606 306.728,162.454 306.156 C 162.302 305.585,161.861 304.548,161.473 303.853 C 161.085 303.159,160.689 302.135,160.593 301.579 C 160.496 301.023,160.139 300.089,159.798 299.502 C 158.379 297.058,159.486 296.360,165.501 295.903 C 167.512 295.750,170.525 295.333,172.197 294.976 C 174.777 294.425,176.193 294.298,181.554 294.142 C 190.868 293.871,192.426 293.869,201.011 294.127 M147.182 300.297 C 147.886 300.591,148.093 300.856,148.314 301.750 C 148.950 304.319,149.156 304.911,149.706 305.749 C 150.025 306.235,150.420 307.202,150.584 307.896 C 150.748 308.591,151.169 309.597,151.518 310.131 C 151.868 310.665,152.299 311.575,152.475 312.152 C 152.651 312.730,153.154 313.765,153.593 314.453 C 154.031 315.140,154.390 315.879,154.391 316.095 C 154.391 316.311,154.845 317.227,155.401 318.130 C 155.957 319.033,156.412 319.892,156.412 320.039 C 156.412 320.185,156.734 320.754,157.127 321.302 C 157.520 321.851,157.993 322.697,158.178 323.184 C 158.363 323.670,158.770 324.352,159.082 324.700 C 159.394 325.047,159.837 325.786,160.066 326.342 C 160.294 326.898,160.754 327.637,161.087 327.985 C 161.419 328.332,161.864 329.029,162.075 329.534 C 162.285 330.038,162.730 330.777,163.063 331.176 C 163.396 331.575,163.871 332.299,164.119 332.786 C 164.366 333.272,164.845 334.011,165.183 334.428 C 165.903 335.317,166.843 336.657,167.467 337.684 C 167.710 338.084,168.335 338.916,168.857 339.531 C 169.378 340.146,169.804 340.753,169.804 340.879 C 169.804 341.005,170.174 341.505,170.625 341.990 C 171.768 343.218,172.871 344.599,173.468 345.548 C 174.107 346.565,175.527 348.319,176.464 349.251 C 178.092 350.869,175.112 351.311,170.689 350.107 C 169.438 349.767,166.993 349.305,165.256 349.082 C 163.192 348.817,161.659 348.473,160.834 348.089 C 160.139 347.766,158.774 347.368,157.802 347.204 C 156.829 347.041,155.407 346.622,154.643 346.274 C 153.879 345.926,152.510 345.484,151.601 345.293 C 150.693 345.101,149.288 344.597,148.480 344.171 C 147.672 343.746,146.744 343.399,146.417 343.399 C 145.722 343.399,144.738 342.990,143.591 342.227 C 143.141 341.927,142.174 341.542,141.443 341.372 C 140.712 341.201,139.874 340.844,139.581 340.577 C 139.287 340.310,138.449 339.865,137.718 339.587 C 136.986 339.309,136.032 338.816,135.598 338.492 C 135.163 338.167,134.378 337.765,133.853 337.596 C 133.329 337.428,132.571 337.015,132.171 336.678 C 131.770 336.340,130.952 335.892,130.352 335.680 C 129.753 335.469,129.030 335.077,128.747 334.811 C 128.463 334.544,127.820 334.154,127.317 333.944 C 126.815 333.734,126.059 333.273,125.637 332.918 C 125.216 332.564,124.435 332.094,123.901 331.874 C 123.368 331.654,122.674 331.237,122.360 330.946 C 122.046 330.656,121.409 330.184,120.944 329.897 C 119.093 328.753,117.576 327.732,116.614 326.983 C 116.058 326.550,115.092 325.801,114.466 325.317 C 110.320 322.109,107.896 319.961,107.896 319.494 C 107.896 318.782,108.754 317.408,109.375 317.125 C 109.732 316.962,110.427 316.487,110.919 316.069 C 111.971 315.175,115.224 313.076,115.558 313.076 C 115.685 313.076,116.172 312.740,116.641 312.329 C 117.109 311.918,117.950 311.458,118.509 311.308 C 119.069 311.157,119.895 310.712,120.344 310.318 C 120.794 309.925,121.525 309.524,121.969 309.428 C 122.413 309.331,123.226 308.926,123.776 308.528 C 124.326 308.129,125.271 307.671,125.875 307.511 C 126.480 307.350,127.354 306.931,127.818 306.580 C 128.281 306.229,129.302 305.774,130.086 305.570 C 130.869 305.365,131.994 304.914,132.586 304.567 C 133.177 304.221,134.345 303.778,135.180 303.583 C 136.015 303.388,137.240 302.950,137.901 302.609 C 138.562 302.268,139.842 301.859,140.745 301.700 C 141.649 301.540,143.068 301.078,143.900 300.673 C 145.620 299.836,145.980 299.795,147.182 300.297 M240.505 301.045 C 240.881 301.238,241.870 301.532,242.704 301.700 C 243.538 301.868,244.683 302.271,245.248 302.597 C 245.814 302.923,247.036 303.366,247.964 303.581 C 248.893 303.796,250.079 304.249,250.600 304.587 C 251.121 304.924,252.269 305.381,253.152 305.602 C 254.034 305.823,255.044 306.230,255.396 306.507 C 255.748 306.784,256.804 307.239,257.742 307.518 C 258.681 307.798,259.584 308.190,259.749 308.389 C 259.914 308.588,260.829 309.049,261.781 309.413 C 262.734 309.776,263.644 310.232,263.804 310.424 C 263.964 310.617,264.658 310.962,265.346 311.190 C 266.035 311.419,266.908 311.867,267.287 312.186 C 267.666 312.505,268.429 312.955,268.982 313.186 C 269.534 313.417,270.245 313.849,270.561 314.146 C 270.878 314.443,271.519 314.921,271.986 315.208 C 274.292 316.624,275.421 317.674,275.724 318.686 L 276.029 319.705 274.767 320.876 C 273.549 322.007,271.692 323.521,269.399 325.257 C 268.794 325.715,267.941 326.445,267.504 326.880 C 267.066 327.314,266.451 327.749,266.135 327.846 C 265.820 327.943,265.061 328.404,264.449 328.871 C 263.837 329.338,263.007 329.891,262.604 330.099 C 262.201 330.308,261.710 330.672,261.514 330.909 C 261.318 331.145,260.655 331.554,260.041 331.817 C 259.427 332.080,258.541 332.633,258.070 333.046 C 257.600 333.459,257.062 333.797,256.874 333.797 C 256.686 333.797,255.979 334.172,255.303 334.632 C 254.627 335.091,253.677 335.621,253.190 335.810 C 252.704 335.998,252.078 336.352,251.800 336.597 C 251.522 336.841,250.783 337.238,250.158 337.479 C 249.533 337.719,248.786 338.127,248.498 338.384 C 248.211 338.641,247.252 339.135,246.368 339.482 C 245.483 339.829,244.524 340.332,244.237 340.600 C 243.950 340.869,243.146 341.224,242.451 341.390 C 241.756 341.556,240.790 341.957,240.303 342.282 C 239.817 342.607,238.680 343.057,237.776 343.283 C 236.873 343.509,235.721 343.961,235.217 344.288 C 234.713 344.614,233.576 345.012,232.690 345.171 C 231.805 345.331,230.341 345.785,229.437 346.181 C 228.533 346.576,226.998 347.035,226.026 347.201 C 225.053 347.367,223.613 347.771,222.825 348.099 C 221.973 348.453,220.156 348.855,218.343 349.091 C 216.666 349.309,214.362 349.767,213.224 350.107 C 209.708 351.160,207.952 350.796,209.480 349.332 C 209.895 348.935,210.234 348.482,210.234 348.326 C 210.234 348.170,210.585 347.708,211.014 347.299 C 211.444 346.891,211.954 346.253,212.148 345.882 C 212.501 345.205,213.989 343.312,215.083 342.145 C 215.674 341.516,216.170 340.829,217.875 338.276 C 218.394 337.499,218.936 336.790,219.080 336.701 C 219.223 336.613,219.624 335.980,219.971 335.295 C 220.318 334.610,220.712 334.049,220.846 334.049 C 220.981 334.049,221.392 333.452,221.760 332.723 C 222.128 331.993,222.755 331.023,223.154 330.566 C 223.553 330.110,223.879 329.573,223.879 329.375 C 223.879 329.176,224.207 328.640,224.607 328.183 C 225.008 327.727,225.525 326.900,225.756 326.346 C 225.988 325.792,226.394 325.108,226.658 324.826 C 226.923 324.545,227.326 323.868,227.554 323.323 C 227.781 322.778,228.229 321.983,228.549 321.557 C 228.869 321.132,229.383 320.190,229.691 319.465 C 229.999 318.739,230.403 318.020,230.589 317.866 C 230.774 317.712,231.120 317.001,231.358 316.286 C 231.595 315.571,232.113 314.540,232.509 313.993 C 232.904 313.447,233.228 312.800,233.228 312.554 C 233.228 312.309,233.620 311.369,234.099 310.466 C 234.578 309.564,235.129 308.218,235.324 307.476 C 235.519 306.735,235.970 305.700,236.327 305.177 C 236.683 304.654,237.055 303.744,237.152 303.155 C 237.542 300.803,238.661 300.099,240.505 301.045 " stroke="none" fill="#056605" fill-rule="evenodd"></path></g></svg>