<?xml version="1.0" encoding="utf-8"?>
<!-- Generator: Adobe Illustrator 24.0.1, SVG Export Plug-In . SVG Version: 6.00 Build 0)  -->
<svg version="1.1" id="Layer_1" xmlns="http://www.w3.org/2000/svg" xmlns:xlink="http://www.w3.org/1999/xlink" x="0px" y="0px"
	 viewBox="0 0 3061.4 1133.9" style="enable-background:new 0 0 3061.4 1133.9;" xml:space="preserve">
<style type="text/css">
	.st0{fill:#FF914D;}
</style>
<g>
	<g>
		<path d="M1064.6,488.1V378.4c0-13.9,4.5-25,13.5-33.5c9-8.5,20.9-12.7,35.6-12.7h132v17.3l-9.2,8.7h-115.1
			c-17.4,0-26.1,8.7-26.1,26v98.1c0,17.3,8.7,26,26.1,26h124.3v26h-132c-14.7,0-26.6-4.2-35.6-12.7
			C1069.1,513.1,1064.6,501.9,1064.6,488.1z"/>
		<path d="M1278,490.9V375.5c0-13.9,4.5-25,13.5-33.5c9-8.5,20.9-12.7,35.6-12.7h101.3c14.7,0,26.6,4.2,35.6,12.7
			c9,8.5,13.5,19.6,13.5,33.5v115.5c0,13.9-4.5,25-13.5,33.5c-9,8.5-20.9,12.7-35.6,12.7h-101.3c-14.7,0-26.6-4.2-35.6-12.7
			C1282.5,516,1278,504.8,1278,490.9z M1334.8,511.2h85.9c17.4,0,26.1-8.7,26.1-26V381.3c0-17.3-8.7-26-26.1-26h-85.9
			c-17.4,0-26.1,8.7-26.1,26v103.9C1308.7,502.5,1317.4,511.2,1334.8,511.2z"/>
		<path d="M1531.2,534.2V332.2h30.7l136.6,161.6h1.5l-3.1-37.5V332.2h30.7v202.1H1697l-136.6-161.6h-1.5l3.1,37.5v124.1H1531.2z"/>
		<path d="M1781.4,488.1V378.4c0-13.9,4.5-25,13.5-33.5c9-8.5,20.9-12.7,35.6-12.7h132v17.3l-9.2,8.7h-115.1
			c-17.4,0-26.1,8.7-26.1,26v98.1c0,17.3,8.7,26,26.1,26h124.3v26h-132c-14.7,0-26.6-4.2-35.6-12.7
			C1785.9,513.1,1781.4,501.9,1781.4,488.1z"/>
		<path d="M1994.7,490.9V375.5c0-13.9,4.5-25,13.5-33.5c9-8.5,20.9-12.7,35.6-12.7h101.3c14.7,0,26.6,4.2,35.6,12.7
			c9,8.5,13.5,19.6,13.5,33.5v115.5c0,13.9-4.5,25-13.5,33.5c-9,8.5-20.9,12.7-35.6,12.7h-101.3c-14.7,0-26.6-4.2-35.6-12.7
			C1999.2,516,1994.7,504.8,1994.7,490.9z M2051.5,511.2h85.9c17.4,0,26.1-8.7,26.1-26V381.3c0-17.3-8.7-26-26.1-26h-85.9
			c-17.4,0-26.1,8.7-26.1,26v103.9C2025.4,502.5,2034.1,511.2,2051.5,511.2z"/>
		<path d="M2248,534.2V332.2h138.1c14.7,0,26.6,4.2,35.6,12.7c9,8.5,13.5,19.6,13.5,33.5V413c0,13.1-4.4,23.8-13.2,32.2
			c-8.8,8.4-19.8,12.6-32.8,12.6l50.6,62.1v14.4h-26.1l-61.4-76.5h-73.7v76.5H2248z M2278.6,431.8h99.8c17.4,0,26.1-8.7,26.1-26
			v-21.6c0-17.3-8.7-26-26.1-26h-99.8V431.8z"/>
		<path d="M2490.4,534.2V332.2h144.3c14.7,0,26.6,4.2,35.6,12.7c9,8.5,13.5,19.6,13.5,33.5v109.7c0,13.9-4.5,25-13.5,33.5
			c-9,8.5-20.9,12.7-35.6,12.7H2490.4z M2521.1,508.3H2627c17.4,0,26.1-8.7,26.1-26v-98.1c0-17.3-8.7-26-26.1-26h-105.9V508.3z"/>
		<path d="M2737.5,534.2V332.2h170.4v17.3l-9.2,8.7h-130.5v60.6h110.5v26h-110.5v63.5h139.7v26H2737.5z"/>
	</g>
	<g>
		<path class="st0" d="M1064.6,801.7V599.6H1235v17.3l-9.2,8.7h-130.5v60.6h110.5v26h-110.5v63.5H1235v26H1064.6z"/>
		<path class="st0" d="M1276.1,801.7V599.6h144.3c14.7,0,26.6,4.2,35.6,12.7c9,8.5,13.5,19.6,13.5,33.5v109.7
			c0,13.9-4.5,25-13.5,33.5c-9,8.5-20.9,12.7-35.6,12.7H1276.1z M1306.8,775.7h105.9c17.4,0,26.1-8.7,26.1-26v-98.1
			c0-17.3-8.7-26-26.1-26h-105.9V775.7z"/>
		<path class="st0" d="M1518.3,758.4V599.6h30.7v153c0,17.3,8.7,26,26.1,26h82.9c17.4,0,26.1-8.7,26.1-26v-153h30.7v158.8
			c0,13.9-4.5,25-13.5,33.5c-9,8.5-20.9,12.7-35.6,12.7h-98.2c-14.7,0-26.6-4.2-35.6-12.7C1522.8,783.4,1518.3,772.2,1518.3,758.4z"
			/>
		<path class="st0" d="M1763.6,755.5V645.8c0-13.9,4.5-25,13.5-33.5c9-8.5,20.9-12.7,35.6-12.7h132v17.3l-9.2,8.7h-115.1
			c-17.4,0-26.1,8.7-26.1,26v98.1c0,17.3,8.7,26,26.1,26h124.3v26h-132c-14.7,0-26.6-4.2-35.6-12.7
			C1768.1,780.5,1763.6,769.3,1763.6,755.5z"/>
		<path class="st0" d="M1961.3,801.7v-14.4l89-187.6h39.9l89,187.6v14.4h-27.6l-22.7-49.1h-117.3l-22.7,49.1H1961.3z M2023.6,726.6
			h93.3l-46.7-101L2023.6,726.6z"/>
		<path class="st0" d="M2246.4,801.7V625.6h-82.9v-26H2360v17.3l-9.2,8.7h-73.7v176.1H2246.4z"/>
		<path class="st0" d="M2391.9,801.7V599.6h30.7v202.1H2391.9z"/>
		<path class="st0" d="M2472.9,758.4V642.9c0-13.9,4.5-25,13.5-33.5c9-8.5,20.9-12.7,35.6-12.7h101.3c14.7,0,26.6,4.2,35.6,12.7
			c9,8.5,13.5,19.6,13.5,33.5v115.5c0,13.9-4.5,25-13.5,33.5c-9,8.5-20.9,12.7-35.6,12.7h-101.3c-14.7,0-26.6-4.2-35.6-12.7
			C2477.4,783.4,2472.9,772.2,2472.9,758.4z M2529.7,778.6h85.9c17.4,0,26.1-8.7,26.1-26V648.7c0-17.3-8.7-26-26.1-26h-85.9
			c-17.4,0-26.1,8.7-26.1,26v103.9C2503.6,769.9,2512.3,778.6,2529.7,778.6z"/>
		<path class="st0" d="M2722.8,801.7V599.6h30.7l136.6,161.6h1.5l-3.1-37.5V599.6h30.7v202.1h-30.7L2752,640h-1.5l3.1,37.5v124.1
			H2722.8z"/>
	</g>
</g>
<g>
	<path d="M142.2,565.6c0-72.7,0.1-145.4,0-218.2c0-17.4,7.4-30.4,22.3-39.1C243.9,262.1,323.5,216,403,169.8
		c43.8-25.5,87.7-50.9,131.5-76.5c18.8-11,37.1-11,56,0.1C699.7,157,809.1,220.4,918.4,283.9c14.7,8.5,29.7,16.7,44,25.9
		c13.3,8.5,20.3,20.7,20.2,37.1c-0.3,52.3-0.2,50.9,0,103.3c0,6.2-2.4,10-7.5,13c-19.5,11.2-38.9,22.6-58.4,33.8
		c-9.6,5.6-18.9,0.2-18.9-11c0-45.9,0-38,0-83.9c0-10.2-1.5-20-7-29c-4.6-7.4-10.7-13-18.2-17.3c-95.3-55.2-190.6-110.4-285.8-165.6
		c-16-9.3-32.3-9.3-48.2,0c-71.4,41.4-142.7,82.9-214.1,124.4c-24.1,14-48.1,28.1-72.2,42c-13.9,8-22.6,19.6-25,35.5
		c-0.3,2-0.4,4-0.4,5.9c0,112.1-0.1,224.3,0,336.4c0,18.4,8.1,32.4,24.1,41.7c74,43,148.1,86.1,222.1,129.1
		c22.2,12.9,44.4,26.1,66.8,38.6c14.8,8.3,30.3,9,45.2,0.5c35.3-20.2,70.3-40.8,105.4-61.2c60.2-35,120.3-70,180.6-104.8
		c13.4-7.7,22.5-18.3,25.5-33.5c0.8-4.2,1.1-8.6,1.1-13c0.1-30.5,0.2-34,0-64.5c0-6.4,2.4-10.5,7.8-13.6
		c19.4-11.1,38.7-22.4,58.1-33.7c3.5-2,7.1-2.9,11.1-1.7c4.8,1.5,7.7,5.2,7.9,10.2c0,1.1,0,2.2,0,3.4c0,59.3-0.1,91.7,0.1,151
		c0,9.6-2.4,18.2-6.6,26.4c-3.7,7-10,11.8-16.5,15.8c-14.5,8.9-29.2,17.4-43.9,26c-32.2,18.7-64.5,37.4-96.8,56.1
		c-77.2,44.8-154.3,89.7-231.5,134.5c-16.4,9.5-32.8,9.4-49.2-0.1c-114-66.3-228-132.6-342-198.9c-11.2-6.5-22.6-12.6-33.4-19.7
		c-13.4-8.9-20.4-21.9-20.5-38.1C142.2,711.8,142.2,638.7,142.2,565.6z"/>
	<path class="st0" d="M815.5,663.8c0-9.7-10.5-15.7-18.8-10.9c-65.3,37.9-175.3,101.7-210.2,121.8c-15.6,9-31.8,9.2-47.5,0.1
		c-47-27.2-93.9-54.7-140.8-82c-7.6-4.4-15.2-9-22.9-13.3c-2.5-1.4-3.5-3-3.5-5.9c0.1-71,0.1-142,0.1-212.9c0-1.2,0.2-2.4,0.3-4.1
		c1.6,0.8,2.7,1.3,3.7,1.9c53.5,31.1,107.1,62.1,160.5,93.3c17.5,10.2,34.6,10.3,52.2,0.1c50-29.2,100.1-58.3,150.2-87.4
		c20.8-12.1,41.8-24.1,62.6-36.3c18.2-10.6,18-32.5-0.2-43.2c-63.5-37-127-73.9-190.5-110.8c-8.4-4.9-16.7-9.9-25.2-14.5
		c-15.4-8.4-31.1-8.4-46.3,0.3c-26.8,15.3-53.5,30.9-80.1,46.5l0,0l-94.6,55.1c0,0,0,0,0,0c-22.2,13-44.6,25.7-66.7,38.8
		c-7.3,4.3-10.5,11.4-11,19.7c-0.1,1.6,0,3.2,0,4.8c0,94.8,0.1,189.7-0.1,284.5c0,12.4,4.8,20.8,15.5,27
		c78.3,45.2,156.4,90.6,234.5,135.9c17.3,10.1,34.4,10.2,51.9,0c56.1-32.7,163.7-95.7,220.6-129c3.8-2.3,6.2-6.4,6.2-10.8V663.8z
		 M474.8,396.2l49.6-29.1c0.1,0,0.2-0.1,0.2-0.1c5-3,10-6,15.2-8.7c15.7-8.4,31.5-8.2,46.9,0.7c21,12,41.8,24.6,63,36.4
		c10.1,5.6,9.5,17.5,0.1,22.7c-21.2,11.7-41.9,24.3-63,36.4c-16,9.1-32.2,9.3-48.2,0.1c-21.3-12.3-42.6-24.6-63.8-36.9
		C466.7,412.8,466.6,401,474.8,396.2z"/>
</g>
</svg>
