<svg id="svg" version="1.1" xmlns="http://www.w3.org/2000/svg" xmlns:xlink="http://www.w3.org/1999/xlink" width="400" height="400" viewBox="0, 0, 400,400"><g id="svgg"><path id="path0" d="M186.800 0.392 C 186.250 0.573,184.755 0.738,183.477 0.760 C 182.199 0.782,179.859 0.983,178.277 1.207 C 176.695 1.431,174.050 1.795,172.400 2.017 C 162.995 3.280,156.066 4.693,147.000 7.199 C 146.340 7.381,144.761 7.815,143.492 8.162 C 137.807 9.718,127.261 13.488,122.200 15.773 C 121.100 16.269,119.390 17.017,118.400 17.434 C 116.155 18.379,104.360 24.309,102.200 25.578 C 101.320 26.095,99.610 27.062,98.400 27.726 C 94.303 29.977,82.654 37.978,77.209 42.281 C 72.459 46.036,71.040 47.198,68.629 49.312 C 47.978 67.417,31.334 89.224,19.963 113.073 C 18.200 116.773,16.605 120.160,16.419 120.600 C 16.233 121.040,15.808 122.030,15.474 122.800 C 15.139 123.570,14.564 125.010,14.196 126.000 C 13.827 126.990,13.379 128.160,13.200 128.600 C 12.046 131.435,9.505 138.791,8.779 141.400 C 8.595 142.060,8.245 143.320,8.000 144.200 C 7.755 145.080,7.401 146.340,7.212 147.000 C 6.492 149.521,5.700 152.691,5.214 155.000 C 4.936 156.320,4.564 157.940,4.388 158.600 C 4.211 159.260,3.856 161.060,3.598 162.600 C 3.340 164.140,2.974 166.120,2.786 167.000 C 2.597 167.880,2.247 170.130,2.007 172.000 C 1.768 173.870,1.481 176.030,1.371 176.800 C -0.182 187.624,-0.182 212.376,1.371 223.200 C 1.481 223.970,1.768 226.130,2.007 228.000 C 2.247 229.870,2.597 232.120,2.786 233.000 C 2.974 233.880,3.340 235.860,3.598 237.400 C 3.856 238.940,4.211 240.740,4.388 241.400 C 4.564 242.060,4.936 243.680,5.214 245.000 C 5.835 247.951,6.560 250.762,8.000 255.800 C 8.220 256.570,8.560 257.785,8.757 258.500 C 9.719 262.008,13.161 271.666,14.030 273.295 C 14.233 273.677,14.400 274.174,14.400 274.399 C 14.400 274.775,14.690 275.477,16.794 280.200 C 22.525 293.060,33.592 312.204,39.356 319.229 C 39.820 319.794,40.650 320.861,41.200 321.599 C 52.882 337.267,72.466 355.568,88.800 366.082 C 95.217 370.213,96.856 371.245,98.227 372.022 C 98.982 372.450,100.230 373.160,101.000 373.600 C 104.269 375.468,105.236 375.985,109.800 378.306 C 116.422 381.674,124.935 385.600,125.617 385.600 C 125.834 385.600,126.323 385.767,126.705 385.970 C 128.463 386.907,137.932 390.211,142.800 391.585 C 143.790 391.864,145.050 392.231,145.600 392.400 C 146.150 392.569,147.410 392.929,148.400 393.200 C 149.390 393.471,150.650 393.837,151.200 394.013 C 151.750 394.189,152.830 394.456,153.600 394.607 C 154.370 394.759,155.630 395.026,156.400 395.201 C 163.837 396.893,170.790 397.955,183.200 399.295 C 188.634 399.881,211.366 399.881,216.800 399.295 C 229.210 397.955,236.163 396.893,243.600 395.201 C 244.370 395.026,245.630 394.759,246.400 394.607 C 247.170 394.456,248.250 394.189,248.800 394.013 C 249.350 393.837,250.610 393.471,251.600 393.200 C 252.590 392.929,253.850 392.569,254.400 392.400 C 254.950 392.231,256.210 391.864,257.200 391.585 C 262.068 390.211,271.537 386.907,273.295 385.970 C 273.677 385.767,274.166 385.600,274.383 385.600 C 275.065 385.600,283.578 381.674,290.200 378.306 C 294.764 375.985,295.731 375.468,299.000 373.600 C 299.770 373.160,301.018 372.450,301.773 372.022 C 303.144 371.245,304.783 370.213,311.200 366.082 C 326.345 356.334,344.264 339.954,356.143 325.000 C 357.192 323.680,358.266 322.330,358.530 322.000 C 358.795 321.670,359.450 320.770,359.986 320.000 C 360.523 319.230,361.080 318.510,361.226 318.400 C 363.845 316.416,378.665 290.860,382.565 281.600 C 382.982 280.610,383.836 278.670,384.462 277.290 C 385.088 275.909,385.600 274.629,385.600 274.445 C 385.600 274.261,386.150 272.780,386.822 271.155 C 388.056 268.173,390.599 260.902,391.249 258.500 C 391.442 257.785,391.780 256.570,392.000 255.800 C 393.440 250.762,394.165 247.951,394.786 245.000 C 395.064 243.680,395.436 242.060,395.612 241.400 C 395.789 240.740,396.144 238.940,396.402 237.400 C 396.660 235.860,397.026 233.880,397.214 233.000 C 397.403 232.120,397.753 229.870,397.993 228.000 C 398.232 226.130,398.520 223.970,398.633 223.200 C 400.164 212.707,400.162 187.482,398.629 176.800 C 398.519 176.030,398.232 173.870,397.993 172.000 C 397.753 170.130,397.403 167.880,397.214 167.000 C 397.026 166.120,396.660 164.140,396.402 162.600 C 396.144 161.060,395.789 159.260,395.612 158.600 C 395.436 157.940,395.064 156.320,394.786 155.000 C 394.304 152.711,393.558 149.720,392.765 146.900 C 392.564 146.185,392.210 144.925,391.977 144.100 C 391.745 143.275,391.405 142.060,391.221 141.400 C 390.235 137.859,386.817 128.294,385.970 126.705 C 385.767 126.323,385.600 125.834,385.600 125.617 C 385.600 125.401,385.131 124.183,384.557 122.912 C 383.983 121.640,383.243 119.970,382.911 119.200 C 371.944 93.711,353.523 68.733,331.371 49.312 C 323.515 42.425,308.389 31.457,301.600 27.727 C 300.390 27.062,298.680 26.102,297.800 25.593 C 295.434 24.226,283.682 18.305,281.600 17.431 C 280.610 17.016,278.900 16.269,277.800 15.773 C 272.746 13.491,262.064 9.672,256.608 8.197 C 255.394 7.869,253.410 7.330,252.200 7.000 C 246.992 5.580,245.285 5.142,243.400 4.743 C 242.300 4.510,240.680 4.160,239.800 3.965 C 238.920 3.771,237.030 3.436,235.600 3.223 C 234.170 3.009,231.830 2.642,230.400 2.407 C 227.529 1.937,223.093 1.380,217.000 0.726 C 212.112 0.201,188.188 -0.064,186.800 0.392 M145.525 84.300 C 146.664 85.906,148.400 88.892,148.664 89.700 C 148.790 90.085,149.052 90.400,149.247 90.400 C 149.441 90.400,149.600 90.576,149.600 90.791 C 149.600 91.005,150.706 93.030,152.059 95.291 C 154.385 99.178,154.935 100.121,156.763 103.347 C 157.183 104.087,158.263 105.906,159.163 107.388 C 160.063 108.869,160.800 110.171,160.800 110.279 C 160.800 110.388,161.139 110.954,161.553 111.538 C 161.967 112.122,162.687 113.275,163.153 114.100 C 164.958 117.296,166.468 119.876,169.302 124.600 C 169.698 125.260,170.128 126.115,170.258 126.500 C 170.387 126.885,170.652 127.200,170.847 127.200 C 171.041 127.200,171.200 127.376,171.200 127.591 C 171.200 127.805,172.306 129.830,173.659 132.091 C 175.011 134.351,176.451 136.785,176.859 137.500 C 178.667 140.670,179.165 141.529,180.400 143.600 C 181.613 145.634,182.247 146.731,183.662 149.245 C 183.958 149.770,184.290 150.290,184.400 150.400 C 184.510 150.510,184.842 151.030,185.138 151.555 C 186.792 154.493,188.144 156.801,190.902 161.400 C 191.298 162.060,191.728 162.915,191.858 163.300 C 191.987 163.685,192.252 164.000,192.447 164.000 C 192.641 164.000,192.800 164.181,192.800 164.403 C 192.800 164.625,194.015 166.835,195.500 169.314 C 196.985 171.793,198.455 174.312,198.768 174.911 C 199.409 176.141,200.591 176.354,200.936 175.300 C 201.062 174.915,201.648 173.790,202.239 172.800 C 202.830 171.810,203.648 170.415,204.057 169.700 C 204.465 168.985,205.135 167.815,205.544 167.100 C 205.953 166.385,206.853 164.847,207.544 163.682 C 208.235 162.518,208.800 161.393,208.800 161.182 C 208.800 160.972,208.980 160.800,209.200 160.800 C 209.420 160.800,209.600 160.628,209.600 160.418 C 209.600 160.207,210.165 159.082,210.856 157.918 C 211.547 156.753,212.447 155.215,212.856 154.500 C 213.265 153.785,213.935 152.615,214.344 151.900 C 214.753 151.185,215.653 149.647,216.344 148.482 C 217.035 147.318,217.600 146.301,217.600 146.223 C 217.600 146.145,218.320 144.897,219.200 143.448 C 220.080 142.000,220.800 140.631,220.800 140.407 C 220.800 140.183,220.959 140.000,221.153 140.000 C 221.348 140.000,221.610 139.685,221.736 139.300 C 221.862 138.915,222.448 137.790,223.039 136.800 C 223.630 135.810,224.448 134.415,224.857 133.700 C 225.265 132.985,225.935 131.815,226.344 131.100 C 226.753 130.385,227.653 128.847,228.344 127.682 C 229.035 126.518,229.600 125.393,229.600 125.182 C 229.600 124.972,229.780 124.800,230.000 124.800 C 230.220 124.800,230.400 124.628,230.400 124.418 C 230.400 124.207,230.965 123.082,231.656 121.918 C 232.838 119.924,233.220 119.265,235.200 115.800 C 235.640 115.030,236.360 113.770,236.800 113.000 C 238.780 109.535,239.162 108.876,240.344 106.882 C 241.035 105.718,241.600 104.593,241.600 104.382 C 241.600 104.172,241.759 104.000,241.953 104.000 C 242.148 104.000,242.410 103.685,242.536 103.300 C 242.662 102.915,243.248 101.790,243.839 100.800 C 244.430 99.810,245.248 98.415,245.657 97.700 C 246.065 96.985,246.735 95.815,247.144 95.100 C 247.553 94.385,248.453 92.847,249.144 91.682 C 249.835 90.518,250.400 89.393,250.400 89.182 C 250.400 88.972,250.580 88.800,250.800 88.800 C 251.020 88.800,251.200 88.630,251.200 88.421 C 251.200 88.213,251.839 86.953,252.619 85.621 L 254.038 83.200 265.752 83.200 L 277.465 83.200 278.032 84.300 C 278.344 84.905,278.689 85.490,278.799 85.600 C 278.910 85.710,279.377 86.520,279.838 87.400 C 280.300 88.280,281.065 89.675,281.538 90.500 C 282.012 91.325,282.760 92.630,283.200 93.400 C 283.640 94.170,284.360 95.430,284.800 96.200 C 286.076 98.433,287.214 100.478,288.140 102.200 C 288.613 103.080,289.090 103.890,289.200 104.000 C 289.310 104.110,289.593 104.560,289.829 105.000 C 291.679 108.447,292.226 109.426,292.400 109.600 C 292.510 109.710,292.977 110.520,293.438 111.400 C 293.900 112.280,294.665 113.675,295.138 114.500 C 295.612 115.325,296.360 116.630,296.800 117.400 C 297.240 118.170,297.960 119.430,298.400 120.200 C 299.676 122.433,300.814 124.478,301.740 126.200 C 302.213 127.080,302.690 127.890,302.800 128.000 C 302.910 128.110,303.374 128.920,303.830 129.800 C 304.904 131.869,305.748 133.348,306.000 133.600 C 306.110 133.710,306.577 134.520,307.038 135.400 C 307.500 136.280,308.291 137.720,308.797 138.600 C 309.304 139.480,310.257 141.190,310.917 142.400 C 311.576 143.610,312.250 144.780,312.415 145.000 C 312.715 145.401,313.729 147.202,315.340 150.200 C 315.813 151.080,316.290 151.890,316.400 152.000 C 316.510 152.110,316.977 152.920,317.438 153.800 C 317.900 154.680,318.665 156.075,319.138 156.900 C 319.612 157.725,320.360 159.030,320.800 159.800 C 321.240 160.570,321.960 161.830,322.400 162.600 C 323.676 164.833,324.814 166.878,325.740 168.600 C 326.213 169.480,326.690 170.290,326.800 170.400 C 326.910 170.510,327.193 170.960,327.429 171.400 C 329.279 174.847,329.826 175.826,330.000 176.000 C 330.110 176.110,330.577 176.920,331.038 177.800 C 331.500 178.680,332.291 180.120,332.797 181.000 C 333.304 181.880,334.257 183.590,334.917 184.800 C 335.576 186.010,336.250 187.180,336.415 187.400 C 336.715 187.801,337.729 189.602,339.340 192.600 C 339.813 193.480,340.290 194.290,340.400 194.400 C 340.510 194.510,340.977 195.320,341.438 196.200 C 341.900 197.080,342.665 198.480,343.138 199.312 C 344.045 200.904,344.245 202.383,343.638 203.020 C 343.438 203.229,342.898 204.075,342.438 204.900 C 341.654 206.303,341.106 207.268,339.256 210.500 C 338.847 211.215,337.947 212.753,337.256 213.918 C 336.565 215.082,336.000 216.099,336.000 216.177 C 336.000 216.255,335.280 217.503,334.400 218.952 C 333.520 220.400,332.800 221.769,332.800 221.993 C 332.800 222.217,332.665 222.401,332.500 222.403 C 332.335 222.405,332.013 222.810,331.783 223.303 C 331.197 224.565,329.440 227.760,329.200 228.000 C 329.090 228.110,328.758 228.630,328.462 229.155 C 327.635 230.625,326.482 232.656,325.600 234.200 C 325.160 234.970,324.440 236.230,324.000 237.000 C 323.560 237.770,322.840 239.030,322.400 239.800 C 320.420 243.265,320.038 243.924,318.856 245.918 C 318.165 247.082,317.600 248.099,317.600 248.177 C 317.600 248.255,316.880 249.503,316.000 250.952 C 315.120 252.400,314.400 253.769,314.400 253.993 C 314.400 254.217,314.241 254.400,314.047 254.400 C 313.852 254.400,313.590 254.715,313.464 255.100 C 313.338 255.485,312.752 256.610,312.161 257.600 C 311.570 258.590,310.752 259.985,310.343 260.700 C 309.935 261.415,309.240 262.630,308.800 263.400 C 308.360 264.170,307.640 265.430,307.200 266.200 C 305.220 269.665,304.838 270.324,303.656 272.318 C 302.965 273.482,302.400 274.499,302.400 274.577 C 302.400 274.655,301.680 275.903,300.800 277.352 C 299.920 278.800,299.200 280.169,299.200 280.393 C 299.200 280.617,299.065 280.801,298.900 280.803 C 298.735 280.805,298.413 281.210,298.183 281.703 C 297.597 282.965,295.840 286.160,295.600 286.400 C 295.490 286.510,295.158 287.030,294.862 287.555 C 294.035 289.025,292.882 291.056,292.000 292.600 C 291.560 293.370,290.840 294.630,290.400 295.400 C 289.960 296.170,289.240 297.430,288.800 298.200 C 286.820 301.665,286.438 302.324,285.256 304.318 C 284.565 305.482,284.000 306.499,284.000 306.577 C 284.000 306.655,283.280 307.903,282.400 309.352 C 281.520 310.800,280.800 312.169,280.800 312.393 C 280.800 312.617,280.620 312.800,280.400 312.800 C 280.180 312.800,280.000 312.984,280.000 313.208 C 280.000 313.432,279.548 314.332,278.995 315.208 L 277.990 316.800 266.795 316.800 C 256.363 316.800,255.549 316.749,254.846 316.046 C 254.071 315.271,252.454 312.636,248.837 306.253 C 248.417 305.513,247.337 303.694,246.437 302.212 C 245.537 300.731,244.800 299.429,244.800 299.321 C 244.800 299.212,244.461 298.646,244.047 298.062 C 243.633 297.478,242.913 296.325,242.447 295.500 C 240.642 292.304,239.132 289.724,236.298 285.000 C 235.902 284.340,235.472 283.485,235.342 283.100 C 235.213 282.715,234.948 282.400,234.753 282.400 C 234.559 282.400,234.400 282.224,234.400 282.009 C 234.400 281.795,233.294 279.770,231.941 277.509 C 230.589 275.249,229.149 272.815,228.741 272.100 C 226.933 268.930,226.435 268.071,225.200 266.000 C 223.987 263.966,223.353 262.869,221.938 260.355 C 221.642 259.830,221.310 259.310,221.200 259.200 C 221.090 259.090,220.758 258.570,220.462 258.045 C 218.808 255.107,217.456 252.799,214.698 248.200 C 214.302 247.540,213.872 246.685,213.742 246.300 C 213.613 245.915,213.348 245.600,213.153 245.600 C 212.959 245.600,212.800 245.424,212.800 245.209 C 212.800 244.995,211.694 242.970,210.341 240.709 C 208.015 236.822,207.465 235.879,205.637 232.653 C 205.217 231.913,204.182 230.155,203.337 228.748 C 202.492 227.341,201.545 225.697,201.232 225.095 C 200.545 223.770,199.549 223.685,198.983 224.903 C 198.397 226.165,196.640 229.360,196.400 229.600 C 196.290 229.710,195.958 230.230,195.662 230.755 C 194.451 232.905,193.340 234.858,191.256 238.500 C 190.847 239.215,189.947 240.753,189.256 241.918 C 188.565 243.082,188.000 244.207,188.000 244.418 C 188.000 244.628,187.841 244.800,187.647 244.800 C 187.452 244.800,187.190 245.115,187.064 245.500 C 186.938 245.885,186.352 247.010,185.761 248.000 C 185.170 248.990,184.352 250.385,183.943 251.100 C 183.535 251.815,182.865 252.985,182.456 253.700 C 182.047 254.415,181.147 255.953,180.456 257.118 C 179.765 258.282,179.200 259.407,179.200 259.618 C 179.200 259.828,179.065 260.001,178.900 260.003 C 178.735 260.005,178.413 260.410,178.183 260.903 C 177.597 262.165,175.840 265.360,175.600 265.600 C 175.490 265.710,175.158 266.230,174.862 266.755 C 173.651 268.905,172.540 270.858,170.456 274.500 C 170.047 275.215,169.147 276.753,168.456 277.918 C 167.765 279.082,167.200 280.207,167.200 280.418 C 167.200 280.628,167.041 280.800,166.847 280.800 C 166.652 280.800,166.390 281.115,166.264 281.500 C 166.138 281.885,165.552 283.010,164.961 284.000 C 164.370 284.990,163.552 286.385,163.143 287.100 C 162.735 287.815,162.065 288.985,161.656 289.700 C 161.247 290.415,160.347 291.953,159.656 293.118 C 158.965 294.282,158.400 295.407,158.400 295.618 C 158.400 295.828,158.265 296.001,158.100 296.003 C 157.935 296.005,157.613 296.410,157.383 296.903 C 156.797 298.165,155.040 301.360,154.800 301.600 C 154.690 301.710,154.358 302.230,154.062 302.755 C 152.851 304.905,151.740 306.858,149.656 310.500 C 147.438 314.374,146.261 316.231,145.854 316.494 C 145.103 316.980,119.600 316.866,119.600 316.377 C 119.600 315.906,121.129 313.104,124.344 307.682 C 125.035 306.518,125.600 305.393,125.600 305.182 C 125.600 304.972,125.780 304.800,126.000 304.800 C 126.220 304.800,126.400 304.628,126.400 304.418 C 126.400 304.207,126.965 303.082,127.656 301.918 C 128.347 300.753,129.247 299.215,129.656 298.500 C 130.065 297.785,130.735 296.615,131.144 295.900 C 131.553 295.185,132.453 293.647,133.144 292.482 C 133.835 291.318,134.400 290.301,134.400 290.223 C 134.400 290.145,135.120 288.897,136.000 287.448 C 136.880 286.000,137.600 284.631,137.600 284.407 C 137.600 284.183,137.759 284.000,137.953 284.000 C 138.148 284.000,138.410 283.685,138.536 283.300 C 138.662 282.915,139.248 281.790,139.839 280.800 C 140.430 279.810,141.248 278.415,141.657 277.700 C 142.065 276.985,142.735 275.815,143.144 275.100 C 143.553 274.385,144.453 272.847,145.144 271.682 C 145.835 270.518,146.400 269.393,146.400 269.182 C 146.400 268.972,146.580 268.800,146.800 268.800 C 147.020 268.800,147.200 268.628,147.200 268.418 C 147.200 268.207,147.765 267.082,148.456 265.918 C 149.147 264.753,150.047 263.215,150.456 262.500 C 150.865 261.785,151.535 260.615,151.944 259.900 C 152.353 259.185,153.253 257.647,153.944 256.482 C 154.635 255.318,155.200 254.301,155.200 254.223 C 155.200 254.145,155.920 252.897,156.800 251.448 C 157.680 250.000,158.400 248.631,158.400 248.407 C 158.400 248.183,158.559 248.000,158.753 248.000 C 158.948 248.000,159.210 247.685,159.336 247.300 C 159.462 246.915,160.048 245.790,160.639 244.800 C 161.230 243.810,162.048 242.415,162.457 241.700 C 162.865 240.985,163.535 239.815,163.944 239.100 C 164.353 238.385,165.253 236.847,165.944 235.682 C 166.635 234.518,167.200 233.393,167.200 233.182 C 167.200 232.972,167.380 232.800,167.600 232.800 C 167.820 232.800,168.000 232.628,168.000 232.418 C 168.000 232.207,168.565 231.082,169.256 229.918 C 169.947 228.753,170.847 227.215,171.256 226.500 C 171.665 225.785,172.335 224.615,172.744 223.900 C 173.153 223.185,174.053 221.647,174.744 220.482 C 175.435 219.318,176.000 218.301,176.000 218.223 C 176.000 218.145,176.720 216.897,177.600 215.448 C 178.480 214.000,179.200 212.631,179.200 212.407 C 179.200 212.183,179.359 212.000,179.553 212.000 C 179.748 212.000,180.010 211.685,180.136 211.300 C 180.262 210.915,180.848 209.790,181.439 208.800 C 182.487 207.044,183.209 205.795,184.762 203.055 C 185.182 202.315,185.741 201.364,186.004 200.942 C 186.532 200.098,186.317 199.641,182.000 192.400 C 180.787 190.366,180.153 189.269,178.738 186.755 C 178.442 186.230,178.110 185.710,178.000 185.600 C 177.890 185.490,177.558 184.970,177.262 184.445 C 175.608 181.507,174.256 179.199,171.498 174.600 C 171.102 173.940,170.672 173.085,170.542 172.700 C 170.413 172.315,170.148 172.000,169.953 172.000 C 169.759 172.000,169.600 171.824,169.600 171.609 C 169.600 171.395,168.494 169.370,167.141 167.109 C 165.789 164.849,164.349 162.415,163.941 161.700 C 162.133 158.530,161.635 157.671,160.400 155.600 C 159.187 153.566,158.553 152.469,157.138 149.955 C 156.842 149.430,156.510 148.910,156.400 148.800 C 156.290 148.690,155.958 148.170,155.662 147.645 C 154.008 144.707,152.656 142.399,149.898 137.800 C 149.502 137.140,149.072 136.285,148.942 135.900 C 148.813 135.515,148.548 135.200,148.353 135.200 C 148.159 135.200,148.000 135.024,148.000 134.809 C 148.000 134.595,146.894 132.570,145.541 130.309 C 144.189 128.049,142.749 125.615,142.341 124.900 C 140.626 121.892,140.031 120.868,138.563 118.400 C 137.713 116.970,136.694 115.260,136.298 114.600 C 135.902 113.940,135.472 113.085,135.342 112.700 C 135.213 112.315,134.969 112.000,134.800 112.000 C 134.631 112.000,134.399 111.640,134.284 111.200 C 134.026 110.213,133.264 110.158,132.917 111.100 C 132.775 111.485,132.555 111.890,132.429 112.000 C 132.303 112.110,131.958 112.630,131.662 113.155 C 130.835 114.625,129.682 116.656,128.800 118.200 C 128.360 118.970,127.640 120.230,127.200 121.000 C 126.760 121.770,126.040 123.030,125.600 123.800 C 123.620 127.265,123.238 127.924,122.056 129.918 C 121.365 131.082,120.800 132.099,120.800 132.177 C 120.800 132.255,120.080 133.503,119.200 134.952 C 118.320 136.400,117.600 137.769,117.600 137.993 C 117.600 138.217,117.465 138.401,117.300 138.403 C 117.135 138.405,116.813 138.810,116.583 139.303 C 115.997 140.565,114.240 143.760,114.000 144.000 C 113.890 144.110,113.558 144.630,113.262 145.155 C 112.435 146.625,111.282 148.656,110.400 150.200 C 109.960 150.970,109.240 152.230,108.800 153.000 C 108.360 153.770,107.640 155.030,107.200 155.800 C 105.220 159.265,104.838 159.924,103.656 161.918 C 102.965 163.082,102.400 164.099,102.400 164.177 C 102.400 164.255,101.680 165.503,100.800 166.952 C 99.920 168.400,99.200 169.769,99.200 169.993 C 99.200 170.217,99.065 170.401,98.900 170.403 C 98.735 170.405,98.413 170.810,98.183 171.303 C 97.597 172.565,95.840 175.760,95.600 176.000 C 95.490 176.110,95.158 176.630,94.862 177.155 C 94.035 178.625,92.882 180.656,92.000 182.200 C 91.560 182.970,90.840 184.230,90.400 185.000 C 89.960 185.770,89.240 187.030,88.800 187.800 C 86.820 191.265,86.438 191.924,85.256 193.918 C 84.565 195.082,84.000 196.130,84.000 196.246 C 84.000 196.361,83.451 197.253,82.781 198.228 L 81.562 200.000 68.381 200.000 C 54.238 200.000,54.413 200.028,56.000 198.000 C 56.430 197.450,56.786 196.848,56.791 196.662 C 56.796 196.476,57.133 195.846,57.539 195.262 C 57.945 194.678,58.819 193.210,59.480 192.000 C 60.142 190.790,61.249 188.847,61.941 187.682 C 62.634 186.518,63.200 185.393,63.200 185.182 C 63.200 184.972,63.335 184.799,63.500 184.797 C 63.665 184.795,63.987 184.390,64.217 183.897 C 64.803 182.635,66.560 179.440,66.800 179.200 C 66.910 179.090,67.242 178.570,67.538 178.045 C 68.365 176.575,69.518 174.544,70.400 173.000 C 70.840 172.230,71.560 170.970,72.000 170.200 C 72.440 169.430,73.160 168.170,73.600 167.400 C 75.580 163.935,75.962 163.276,77.144 161.282 C 77.835 160.118,78.400 159.101,78.400 159.023 C 78.400 158.945,79.120 157.697,80.000 156.248 C 80.880 154.800,81.600 153.431,81.600 153.207 C 81.600 152.983,81.735 152.799,81.900 152.797 C 82.065 152.795,82.387 152.390,82.617 151.897 C 83.203 150.635,84.960 147.440,85.200 147.200 C 85.310 147.090,85.642 146.570,85.938 146.045 C 86.765 144.575,87.918 142.544,88.800 141.000 C 89.240 140.230,89.960 138.970,90.400 138.200 C 90.840 137.430,91.560 136.170,92.000 135.400 C 93.980 131.935,94.362 131.276,95.544 129.282 C 96.235 128.118,96.800 127.101,96.800 127.023 C 96.800 126.945,97.520 125.697,98.400 124.248 C 99.280 122.800,100.000 121.431,100.000 121.207 C 100.000 120.983,100.135 120.799,100.300 120.797 C 100.465 120.795,100.787 120.390,101.017 119.897 C 101.603 118.635,103.360 115.440,103.600 115.200 C 103.710 115.090,104.042 114.570,104.338 114.045 C 105.165 112.575,106.318 110.544,107.200 109.000 C 107.640 108.230,108.360 106.970,108.800 106.200 C 109.240 105.430,109.960 104.170,110.400 103.400 C 112.380 99.935,112.762 99.276,113.944 97.282 C 114.635 96.118,115.200 95.101,115.200 95.023 C 115.200 94.945,115.920 93.697,116.800 92.248 C 117.680 90.800,118.400 89.431,118.400 89.207 C 118.400 88.983,118.580 88.800,118.800 88.800 C 119.020 88.800,119.200 88.630,119.200 88.421 C 119.200 88.213,119.839 86.953,120.619 85.621 L 122.038 83.200 133.392 83.200 L 144.746 83.200 145.525 84.300 M263.832 112.799 C 263.045 114.143,262.400 115.413,262.400 115.621 C 262.400 115.830,262.220 116.000,262.000 116.000 C 261.780 116.000,261.600 116.172,261.600 116.382 C 261.600 116.593,261.035 117.718,260.344 118.882 C 259.162 120.876,258.780 121.535,256.800 125.000 C 256.360 125.770,255.640 127.030,255.200 127.800 C 253.220 131.265,252.838 131.924,251.656 133.918 C 250.965 135.082,250.400 136.207,250.400 136.418 C 250.400 136.628,250.241 136.800,250.047 136.800 C 249.852 136.800,249.590 137.115,249.464 137.500 C 249.338 137.885,248.752 139.010,248.161 140.000 C 247.570 140.990,246.752 142.385,246.343 143.100 C 245.935 143.815,245.265 144.985,244.856 145.700 C 244.447 146.415,243.547 147.953,242.856 149.118 C 242.165 150.282,241.600 151.407,241.600 151.618 C 241.600 151.828,241.420 152.000,241.200 152.000 C 240.980 152.000,240.800 152.172,240.800 152.382 C 240.800 152.593,240.235 153.718,239.544 154.882 C 238.362 156.876,237.980 157.535,236.000 161.000 C 235.560 161.770,234.840 163.030,234.400 163.800 C 232.420 167.265,232.038 167.924,230.856 169.918 C 230.165 171.082,229.600 172.207,229.600 172.418 C 229.600 172.628,229.441 172.800,229.247 172.800 C 229.052 172.800,228.790 173.115,228.664 173.500 C 228.538 173.885,227.952 175.010,227.361 176.000 C 226.770 176.990,225.952 178.385,225.543 179.100 C 225.135 179.815,224.465 180.985,224.056 181.700 C 223.647 182.415,222.747 183.953,222.056 185.118 C 221.365 186.282,220.800 187.407,220.800 187.618 C 220.800 187.828,220.665 188.001,220.500 188.003 C 220.335 188.005,220.013 188.410,219.783 188.903 C 219.197 190.165,217.440 193.360,217.200 193.600 C 217.001 193.799,216.645 194.409,215.125 197.155 C 214.685 197.950,214.162 198.771,213.962 198.980 C 213.474 199.492,213.501 200.800,214.000 200.800 C 214.220 200.800,214.400 200.976,214.400 201.191 C 214.400 201.405,215.506 203.430,216.859 205.691 C 218.211 207.951,219.651 210.385,220.059 211.100 C 221.867 214.270,222.365 215.129,223.600 217.200 C 224.813 219.234,225.447 220.331,226.862 222.845 C 227.158 223.370,227.490 223.890,227.600 224.000 C 227.710 224.110,228.042 224.630,228.338 225.155 C 229.992 228.093,231.344 230.401,234.102 235.000 C 234.498 235.660,234.928 236.515,235.058 236.900 C 235.187 237.285,235.452 237.600,235.647 237.600 C 235.841 237.600,236.000 237.776,236.000 237.991 C 236.000 238.205,237.106 240.230,238.459 242.491 C 239.811 244.751,241.251 247.185,241.659 247.900 C 243.467 251.070,243.965 251.929,245.200 254.000 C 246.413 256.034,247.047 257.131,248.462 259.645 C 248.758 260.170,249.090 260.690,249.200 260.800 C 249.310 260.910,249.642 261.430,249.938 261.955 C 251.592 264.893,252.944 267.201,255.702 271.800 C 256.098 272.460,256.528 273.315,256.658 273.700 C 256.787 274.085,257.052 274.400,257.247 274.400 C 257.441 274.400,257.600 274.583,257.600 274.807 C 257.600 275.031,258.320 276.400,259.200 277.848 C 260.080 279.297,260.800 280.566,260.800 280.669 C 260.800 280.772,261.310 281.608,261.933 282.528 C 262.556 283.448,263.182 284.470,263.324 284.800 C 264.844 288.334,266.850 290.396,267.331 288.919 C 267.459 288.524,268.048 287.390,268.639 286.400 C 269.230 285.410,270.048 284.015,270.457 283.300 C 270.865 282.585,271.535 281.415,271.944 280.700 C 272.353 279.985,273.253 278.447,273.944 277.282 C 274.635 276.118,275.200 275.101,275.200 275.023 C 275.200 274.945,275.920 273.697,276.800 272.248 C 277.680 270.800,278.400 269.431,278.400 269.207 C 278.400 268.983,278.535 268.799,278.700 268.797 C 278.865 268.795,279.187 268.390,279.417 267.897 C 280.003 266.635,281.760 263.440,282.000 263.200 C 282.110 263.090,282.442 262.570,282.738 262.045 C 283.565 260.575,284.718 258.544,285.600 257.000 C 286.040 256.230,286.760 254.970,287.200 254.200 C 287.640 253.430,288.360 252.170,288.800 251.400 C 290.780 247.935,291.162 247.276,292.344 245.282 C 293.035 244.118,293.600 243.101,293.600 243.023 C 293.600 242.945,294.320 241.697,295.200 240.248 C 296.080 238.800,296.800 237.431,296.800 237.207 C 296.800 236.983,296.935 236.799,297.100 236.797 C 297.265 236.795,297.587 236.390,297.817 235.897 C 298.403 234.635,300.160 231.440,300.400 231.200 C 300.510 231.090,300.842 230.570,301.138 230.045 C 301.965 228.575,303.118 226.544,304.000 225.000 C 304.440 224.230,305.160 222.970,305.600 222.200 C 306.040 221.430,306.760 220.170,307.200 219.400 C 309.180 215.935,309.562 215.276,310.744 213.282 C 311.435 212.118,312.000 211.101,312.000 211.023 C 312.000 210.945,312.720 209.697,313.600 208.248 C 314.480 206.800,315.200 205.446,315.200 205.241 C 315.200 205.035,315.335 204.807,315.500 204.733 C 315.665 204.660,316.183 203.902,316.651 203.048 L 317.502 201.496 316.413 199.448 C 315.814 198.322,314.936 196.725,314.462 195.900 C 313.988 195.075,313.240 193.770,312.800 193.000 C 312.360 192.230,311.613 190.925,311.141 190.100 C 310.669 189.275,309.743 187.610,309.083 186.400 C 308.424 185.190,307.750 184.020,307.585 183.800 C 307.285 183.399,306.271 181.598,304.660 178.600 C 304.187 177.720,303.710 176.910,303.600 176.800 C 303.490 176.690,303.023 175.880,302.562 175.000 C 302.100 174.120,301.335 172.725,300.862 171.900 C 300.388 171.075,299.640 169.770,299.200 169.000 C 298.760 168.230,298.013 166.925,297.541 166.100 C 297.069 165.275,296.143 163.610,295.483 162.400 C 294.824 161.190,294.150 160.020,293.985 159.800 C 293.685 159.399,292.671 157.598,291.060 154.600 C 290.587 153.720,290.110 152.910,290.000 152.800 C 289.890 152.690,289.413 151.880,288.940 151.000 C 288.014 149.278,286.876 147.233,285.600 145.000 C 285.160 144.230,284.440 142.970,284.000 142.200 C 283.560 141.430,282.840 140.170,282.400 139.400 C 281.960 138.630,281.240 137.370,280.800 136.600 C 279.524 134.367,278.386 132.322,277.460 130.600 C 276.987 129.720,276.510 128.910,276.400 128.800 C 276.290 128.690,275.813 127.880,275.340 127.000 C 274.414 125.278,273.276 123.233,272.000 121.000 C 271.560 120.230,270.840 118.970,270.400 118.200 C 269.960 117.430,269.265 116.215,268.857 115.500 C 268.448 114.785,267.659 113.397,267.105 112.416 C 265.723 109.972,265.472 110.001,263.832 112.799 " stroke="none" fill="#040404" fill-rule="evenodd"></path></g></svg>